  0
SECTION
  2
HEADER
  9
$ACADVER
  1
AC1015
  9
$ACADMAINTVER
 70
     6
  9
$DWGCODEPAGE
  3
ANSI_1252
  9
$INSBASE
 10
0.0
 20
0.0
 30
0.0
  9
$EXTMIN
 10
0.0
 20
0.0
 30
0.0
  9
$EXTMAX
 10
287.0
 20
320.0
 30
0.0
  9
$LIMMIN
 10
0.0
 20
0.0
  9
$LIMMAX
 10
420.0
 20
297.0
  9
$ORTHOMODE
 70
     0
  9
$REGENMODE
 70
     1
  9
$FILLMODE
 70
     1
  9
$QTEXTMODE
 70
     0
  9
$MIRRTEXT
 70
     1
  9
$LTSCALE
 40
1.0
  9
$ATTMODE
 70
     1
  9
$TEXTSIZE
 40
6.35
  9
$TRACEWID
 40
1.0
  9
$TEXTSTYLE
  7
Standard
  9
$CLAYER
  8
0
  9
$CELTYPE
  6
ByLayer
  9
$CECOLOR
 62
   256
  9
$CELTSCALE
 40
1.0
  9
$DISPSILH
 70
     0
  9
$DIMSCALE
 40
1.0
  9
$DIMASZ
 40
5.9944
  9
$DIMEXO
 40
0.9906
  9
$DIMDLI
 40
3.75
  9
$DIMRND
 40
0.0
  9
$DIMDLE
 40
0.0
  9
$DIMEXE
 40
0.9906
  9
$DIMTP
 40
0.0
  9
$DIMTM
 40
0.0
  9
$DIMTXT
 40
6.35
  9
$DIMCEN
 40
2.5
  9
$DIMTSZ
 40
0.0
  9
$DIMTOL
 70
     0
  9
$DIMLIM
 70
     0
  9
$DIMTIH
 70
     1
  9
$DIMTOH
 70
     1
  9
$DIMSE1
 70
     0
  9
$DIMSE2
 70
     0
  9
$DIMTAD
 70
     1
  9
$DIMZIN
 70
     0
  9
$DIMBLK
  1

  9
$DIMASO
 70
     1
  9
$DIMSHO
 70
     1
  9
$DIMPOST
  1

  9
$DIMAPOST
  1

  9
$DIMALT
 70
     0
  9
$DIMALTD
 70
     3
  9
$DIMALTF
 40
0.0393700787
  9
$DIMLFAC
 40
1.0
  9
$DIMTOFL
 70
     1
  9
$DIMTVP
 40
0.0
  9
$DIMTIX
 70
     0
  9
$DIMSOXD
 70
     0
  9
$DIMSAH
 70
     0
  9
$DIMBLK1
  1

  9
$DIMBLK2
  1

  9
$DIMSTYLE
  2
ISO-25
  9
$DIMCLRD
 70
     0
  9
$DIMCLRE
 70
     0
  9
$DIMCLRT
 70
     0
  9
$DIMTFAC
 40
1.0
  9
$DIMGAP
 40
1.524
  9
$DIMJUST
 70
     0
  9
$DIMSD1
 70
     0
  9
$DIMSD2
 70
     0
  9
$DIMTOLJ
 70
     0
  9
$DIMTZIN
 70
     0
  9
$DIMALTZ
 70
     0
  9
$DIMALTTZ
 70
     0
  9
$DIMUPT
 70
     0
  9
$DIMDEC
 70
     2
  9
$DIMTDEC
 70
     2
  9
$DIMALTU
 70
     2
  9
$DIMALTTD
 70
     3
  9
$DIMTXSTY
  7
Standard
  9
$DIMAUNIT
 70
     0
  9
$DIMADEC
 70
     2
  9
$DIMALTRND
 40
0.0
  9
$DIMAZIN
 70
     0
  9
$DIMDSEP
 70
    44
  9
$DIMATFIT
 70
     3
  9
$DIMFRAC
 70
     0
  9
$DIMLDRBLK
  1

  9
$DIMLUNIT
 70
     2
  9
$DIMLWD
 70
    -2
  9
$DIMLWE
 70
    -2
  9
$DIMTMOVE
 70
     0
  9
$LUNITS
 70
     2
  9
$LUPREC
 70
     2
  9
$SKETCHINC
 40
1.0
  9
$FILLETRAD
 40
10.0
  9
$AUNITS
 70
     0
  9
$AUPREC
 70
     2
  9
$MENU
  1
.
  9
$ELEVATION
 40
0.0
  9
$PELEVATION
 40
0.0
  9
$THICKNESS
 40
0.0
  9
$LIMCHECK
 70
     0
  9
$CHAMFERA
 40
0.0
  9
$CHAMFERB
 40
0.0
  9
$CHAMFERC
 40
0.0
  9
$CHAMFERD
 40
0.0
  9
$SKPOLY
 70
     0
  9
$TDCREATE
 40
2458241.457260752
  9
$TDUCREATE
 40
2458241.373927419
  9
$TDUPDATE
 40
2458241.457287674
  9
$TDUUPDATE
 40
2458241.37395434
  9
$TDINDWG
 40
0.0000000116
  9
$TDUSRTIMER
 40
0.0000000116
  9
$USRTIMER
 70
     1
  9
$ANGBASE
 50
0.0
  9
$ANGDIR
 70
     0
  9
$PDMODE
 70
     0
  9
$PDSIZE
 40
-1.0
  9
$PLINEWID
 40
0.0
  9
$SPLFRAME
 70
     0
  9
$SPLINETYPE
 70
     6
  9
$SPLINESEGS
 70
     8
  9
$HANDSEED
  5
1B4
  9
$SURFTAB1
 70
     6
  9
$SURFTAB2
 70
     6
  9
$SURFTYPE
 70
     6
  9
$SURFU
 70
     6
  9
$SURFV
 70
     6
  9
$UCSBASE
  2

  9
$UCSNAME
  2

  9
$UCSORG
 10
0.0
 20
0.0
 30
0.0
  9
$UCSXDIR
 10
1.0
 20
0.0
 30
0.0
  9
$UCSYDIR
 10
0.0
 20
1.0
 30
0.0
  9
$UCSORTHOREF
  2

  9
$UCSORTHOVIEW
 70
     0
  9
$UCSORGTOP
 10
0.0
 20
0.0
 30
0.0
  9
$UCSORGBOTTOM
 10
0.0
 20
0.0
 30
0.0
  9
$UCSORGLEFT
 10
0.0
 20
0.0
 30
0.0
  9
$UCSORGRIGHT
 10
0.0
 20
0.0
 30
0.0
  9
$UCSORGFRONT
 10
0.0
 20
0.0
 30
0.0
  9
$UCSORGBACK
 10
0.0
 20
0.0
 30
0.0
  9
$PUCSBASE
  2

  9
$PUCSNAME
  2

  9
$PUCSORG
 10
0.0
 20
0.0
 30
0.0
  9
$PUCSXDIR
 10
1.0
 20
0.0
 30
0.0
  9
$PUCSYDIR
 10
0.0
 20
1.0
 30
0.0
  9
$PUCSORTHOREF
  2

  9
$PUCSORTHOVIEW
 70
     0
  9
$PUCSORGTOP
 10
0.0
 20
0.0
 30
0.0
  9
$PUCSORGBOTTOM
 10
0.0
 20
0.0
 30
0.0
  9
$PUCSORGLEFT
 10
0.0
 20
0.0
 30
0.0
  9
$PUCSORGRIGHT
 10
0.0
 20
0.0
 30
0.0
  9
$PUCSORGFRONT
 10
0.0
 20
0.0
 30
0.0
  9
$PUCSORGBACK
 10
0.0
 20
0.0
 30
0.0
  9
$USERI1
 70
     0
  9
$USERI2
 70
     0
  9
$USERI3
 70
     0
  9
$USERI4
 70
     0
  9
$USERI5
 70
     0
  9
$USERR1
 40
0.0
  9
$USERR2
 40
0.0
  9
$USERR3
 40
0.0
  9
$USERR4
 40
0.0
  9
$USERR5
 40
0.0
  9
$WORLDVIEW
 70
     1
  9
$SHADEDGE
 70
     3
  9
$SHADEDIF
 70
    70
  9
$TILEMODE
 70
     1
  9
$MAXACTVP
 70
    64
  9
$PINSBASE
 10
0.0
 20
0.0
 30
0.0
  9
$PLIMCHECK
 70
     0
  9
$PEXTMIN
 10
1.0000000000E+20
 20
1.0000000000E+20
 30
1.0000000000E+20
  9
$PEXTMAX
 10
-1.0000000000E+20
 20
-1.0000000000E+20
 30
-1.0000000000E+20
  9
$PLIMMIN
 10
0.0
 20
0.0
  9
$PLIMMAX
 10
420.0
 20
297.0
  9
$UNITMODE
 70
     0
  9
$VISRETAIN
 70
     1
  9
$PLINEGEN
 70
     0
  9
$PSLTSCALE
 70
     1
  9
$TREEDEPTH
 70
  3020
  9
$CMLSTYLE
  2
Standard
  9
$CMLJUST
 70
     0
  9
$CMLSCALE
 40
20.0
  9
$PROXYGRAPHICS
 70
     1
  9
$MEASUREMENT
 70
     1
  9
$CELWEIGHT
370
    -1
  9
$ENDCAPS
280
     0
  9
$JOINSTYLE
280
     0
  9
$LWDISPLAY
290
     1
  9
$INSUNITS
 70
     4
  9
$HYPERLINKBASE
  1

  9
$STYLESHEET
  1

  9
$XEDIT
290
     1
  9
$CEPSNTYPE
380
     0
  9
$PSTYLEMODE
290
     1
  9
$FINGERPRINTGUID
  2
{FDD1B496-FA82-4AC1-B6C0-645466104B92}
  9
$VERSIONGUID
  2
{FAEB1C32-E019-11D5-929B-00C0DF256EC4}
  9
$EXTNAMES
290
     1
  9
$PSVPSCALE
 40
0.0
  9
$OLESTARTUP
290
     0
  0
ENDSEC
  0
SECTION
  2
CLASSES
  0
CLASS
  1
ACDBDICTIONARYWDFLT
  2
AcDbDictionaryWithDefault
  3
ObjectDBX Classes
 90
        0
280
     0
281
     0
  0
CLASS
  1
VISUALSTYLE
  2
AcDbVisualStyle
  3
ObjectDBX Classes
 90
     4095
280
     0
281
     0
  0
CLASS
  1
MATERIAL
  2
AcDbMaterial
  3
ObjectDBX Classes
 90
     1153
280
     0
281
     0
  0
CLASS
  1
SCALE
  2
AcDbScale
  3
ObjectDBX Classes
 90
     1153
280
     0
281
     0
  0
CLASS
  1
TABLESTYLE
  2
AcDbTableStyle
  3
ObjectDBX Classes
 90
     4095
280
     0
281
     0
  0
CLASS
  1
MLEADERSTYLE
  2
AcDbMLeaderStyle
  3
ACDB_MLEADERSTYLE_CLASS
 90
     4095
280
     0
281
     0
  0
CLASS
  1
SUN
  2
AcDbSun
  3
SCENEOE
 90
     1153
280
     0
281
     0
  0
CLASS
  1
ACDBPLACEHOLDER
  2
AcDbPlaceHolder
  3
ObjectDBX Classes
 90
        0
280
     0
281
     0
  0
CLASS
  1
LAYOUT
  2
AcDbLayout
  3
ObjectDBX Classes
 90
        0
280
     0
281
     0
  0
ENDSEC
  0
SECTION
  2
TABLES
  0
TABLE
  2
VPORT
  5
8
330
0
100
AcDbSymbolTable
 70
     1
  0
VPORT
  5
29
330
8
100
AcDbSymbolTableRecord
100
AcDbViewportTableRecord
  2
*Active
 70
     0
 10
0.0
 20
0.0
 11
1.0
 21
1.0
 12
143.5
 22
160.0
 13
0.0
 23
0.0
 14
10.0
 24
10.0
 15
10.0
 25
10.0
 16
0.0
 26
0.0
 36
1.0
 17
0.0
 27
0.0
 37
0.0
 40
326.4
 41
0.896875
 42
50.0
 43
0.0
 44
0.0
 50
0.0
 51
0.0
 71
     0
 72
   100
 73
     1
 74
     3
 75
     0
 76
     0
 77
     0
 78
     0
281
     0
 65
     1
110
0.0
120
0.0
130
0.0
111
1.0
121
0.0
131
0.0
112
0.0
122
1.0
132
0.0
 79
     0
146
0.0
  0
ENDTAB
  0
TABLE
  2
LTYPE
  5
5
330
0
100
AcDbSymbolTable
 70
     6
  0
LTYPE
  5
14
330
5
100
AcDbSymbolTableRecord
100
AcDbLinetypeTableRecord
  2
ByBlock
 70
     0
  3

 72
    65
 73
     0
 40
0.0
  0
LTYPE
  5
15
330
5
100
AcDbSymbolTableRecord
100
AcDbLinetypeTableRecord
  2
ByLayer
 70
     0
  3

 72
    65
 73
     0
 40
0.0
  0
LTYPE
  5
16
330
5
100
AcDbSymbolTableRecord
100
AcDbLinetypeTableRecord
  2
Continuous
 70
     0
  3
Solid line
 72
    65
 73
     0
 40
0.0
  0
LTYPE
  5
6E
330
5
100
AcDbSymbolTableRecord
100
AcDbLinetypeTableRecord
  2
HIDDEN
 70
     0
  3
Hidden __ __ __ __ __ __ __ __ __ __ __ __ __ __
 72
    65
 73
     2
 40
1.905
 49
1.27
 74
     0
 49
-0.635
 74
     0
  0
LTYPE
  5
6F
330
5
100
AcDbSymbolTableRecord
100
AcDbLinetypeTableRecord
  2
PHANTOM
 70
     0
  3
Phantom ______  __  __  ______  __  __  ______
 72
    65
 73
     6
 40
12.7
 49
6.35
 74
     0
 49
-1.27
 74
     0
 49
1.27
 74
     0
 49
-1.27
 74
     0
 49
1.27
 74
     0
 49
-1.27
 74
     0
  0
LTYPE
  5
70
330
5
100
AcDbSymbolTableRecord
100
AcDbLinetypeTableRecord
  2
CENTER
 70
     0
  3
Center ____ _ ____ _ ____ _ ____ _ ____ _ ____
 72
    65
 73
     4
 40
10.16
 49
6.35
 74
     0
 49
-1.27
 74
     0
 49
1.27
 74
     0
 49
-1.27
 74
     0
  0
LTYPE
  5
71
330
5
100
AcDbSymbolTableRecord
100
AcDbLinetypeTableRecord
  2
CENTERX2
 70
     0
  3
Center (2x) ________  __  ________  __  _____
 72
    65
 73
     4
 40
20.32
 49
12.7
 74
     0
 49
-2.54
 74
     0
 49
2.54
 74
     0
 49
-2.54
 74
     0
  0
LTYPE
  5
72
330
5
100
AcDbSymbolTableRecord
100
AcDbLinetypeTableRecord
  2
DOT2
 70
     0
  3
Dot (.5x) ........................................
 72
    65
 73
     2
 40
0.635
 49
0.0
 74
     0
 49
-0.635
 74
     0
  0
ENDTAB
  0
TABLE
  2
LAYER
  5
2
330
0
100
AcDbSymbolTable
 70
     1
  0
LAYER
  5
10
330
2
100
AcDbSymbolTableRecord
100
AcDbLayerTableRecord
  2
0
 70
     0
 62
     7
  6
Continuous
370
    -3
390
F
  0
ENDTAB
  0
TABLE
  2
STYLE
  5
3
330
0
100
AcDbSymbolTable
 70
     1
  0
STYLE
  5
11
330
3
100
AcDbSymbolTableRecord
100
AcDbTextStyleTableRecord
  2
Standard
 70
     0
 40
0.0
 41
1.0
 50
0.0
 71
     0
 42
6.35
  3
txt
  4

  0
ENDTAB
  0
TABLE
  2
VIEW
  5
6
330
0
100
AcDbSymbolTable
 70
     0
  0
ENDTAB
  0
TABLE
  2
UCS
  5
7
330
0
100
AcDbSymbolTable
 70
     0
  0
ENDTAB
  0
TABLE
  2
APPID
  5
9
330
0
100
AcDbSymbolTable
 70
     1
  0
APPID
  5
12
330
9
100
AcDbSymbolTableRecord
100
AcDbRegAppTableRecord
  2
ACAD
 70
     0
  0
ENDTAB
  0
TABLE
  2
DIMSTYLE
  5
A
330
0
100
AcDbSymbolTable
 70
     1
100
AcDbDimStyleTable
  0
DIMSTYLE
105
27
330
A
100
AcDbSymbolTableRecord
100
AcDbDimStyleTableRecord
  2
ISO-25
 70
     0
 41
2.5
 42
0.625
 43
3.75
 44
1.25
 73
     0
 74
     0
 77
     1
 78
     8
140
2.5
141
2.5
143
0.0393700787
147
0.625
171
     3
172
     1
178
     0
271
     2
272
     2
274
     3
278
    44
283
     0
284
     8
340
11
  0
ENDTAB
  0
TABLE
  2
BLOCK_RECORD
  5
1
330
0
100
AcDbSymbolTable
 70
     1
  0
BLOCK_RECORD
  5
1F
330
1
100
AcDbSymbolTableRecord
100
AcDbBlockTableRecord
  2
*Model_Space
340
22
  0
BLOCK_RECORD
  5
1B
330
1
100
AcDbSymbolTableRecord
100
AcDbBlockTableRecord
  2
*Paper_Space
340
1E
  0
BLOCK_RECORD
  5
23
330
1
100
AcDbSymbolTableRecord
100
AcDbBlockTableRecord
  2
*Paper_Space0
340
26
  0
ENDTAB
  0
ENDSEC
  0
SECTION
  2
BLOCKS
  0
BLOCK
  5
20
330
1F
100
AcDbEntity
  8
0
100
AcDbBlockBegin
  2
*Model_Space
 70
     0
 10
0.0
 20
0.0
 30
0.0
  3
*Model_Space
  1

  0
ENDBLK
  5
21
330
1F
100
AcDbEntity
  8
0
100
AcDbBlockEnd
  0
BLOCK
  5
1C
330
1B
100
AcDbEntity
 67
     1
  8
0
100
AcDbBlockBegin
  2
*Paper_Space
 70
     0
 10
0.0
 20
0.0
 30
0.0
  3
*Paper_Space
  1

  0
ENDBLK
  5
1D
330
1B
100
AcDbEntity
 67
     1
  8
0
100
AcDbBlockEnd
  0
BLOCK
  5
24
330
23
100
AcDbEntity
  8
0
100
AcDbBlockBegin
  2
*Paper_Space0
 70
     0
 10
0.0
 20
0.0
 30
0.0
  3
*Paper_Space0
  1

  0
ENDBLK
  5
25
330
23
100
AcDbEntity
  8
0
100
AcDbBlockEnd
  0
ENDSEC
  0
SECTION
  2
ENTITIES
  0
SPLINE
  5
73
330
1F
100
AcDbEntity
  8
0
  6
Continuous
 62
     7
370
    15
100
AcDbSpline
210
0.0
220
0.0
230
1.0
 70
     8
 71
     3
 72
    23
 73
    19
 74
     0
 42
0.000000001
 43
0.00000001
 40
0.0
 40
0.0
 40
0.0
 40
0.0
 40
0.0584550640849922
 40
0.1168873811113565
 40
0.1750297096627326
 40
0.2336032402891483
 40
0.2919705168712396
 40
0.3493252020966116
 40
0.4074838604695561
 40
0.4658625243602801
 40
0.5250569219253279
 40
0.5857201741189573
 40
0.6481302430566318
 40
0.7134195749710726
 40
0.780595673460374
 40
0.8503569400045339
 40
0.9231503902269201
 40
1.0
 40
1.0
 40
1.0
 40
1.0
 10
107.5834700644127
 20
241.6335005198736
 30
0.0
 10
107.5884691728627
 20
241.4588594581886
 30
0.0
 10
107.5984654444219
 20
241.1096452942083
 30
0.0
 10
107.6639684137875
 20
240.5896323706099
 30
0.0
 10
107.7847525295
 20
240.0797980471206
 30
0.0
 10
107.9420401632653
 20
239.5802241452558
 30
0.0
 10
108.1487142137104
 20
239.1012171466595
 30
0.0
 10
108.4008126525209
 20
238.6458907373742
 30
0.0
 10
108.7020327210401
 20
238.2212839310595
 30
0.0
 10
109.0477226195808
 20
237.8250577585924
 30
0.0
 10
109.4358605464368
 20
237.458984768158
 30
0.0
 10
109.8719121776078
 20
237.1309955708153
 30
0.0
 10
110.352779155256
 20
236.83723175943
 30
0.0
 10
110.8736969530949
 20
236.5756197962043
 30
0.0
 10
111.4386424333258
 20
236.3573848760925
 30
0.0
 10
112.0475404324942
 20
236.2049234631433
 30
0.0
 10
112.6958600429928
 20
236.0994418512549
 30
0.0
 10
113.1429356451463
 20
236.0806507448468
 30
0.0
 10
113.3725325644127
 20
236.0710005198735
 30
0.0
  0
SPLINE
  5
74
330
1F
100
AcDbEntity
  8
0
  6
Continuous
 62
     7
370
    15
100
AcDbSpline
210
0.0
220
0.0
230
1.0
 70
     8
 71
     3
 72
    15
 73
    11
 74
     0
 42
0.000000001
 43
0.00000001
 40
0.0
 40
0.0
 40
0.0
 40
0.0
 40
0.1086551786010859
 40
0.2436218296369952
 40
0.3909563497247479
 40
0.5482035653238652
 40
0.6973398505266049
 40
0.8337613252068511
 40
0.9385353491200958
 40
1.0
 40
1.0
 40
1.0
 40
1.0
 10
113.3725325644127
 20
236.0710005198735
 30
0.0
 10
113.423407933775
 20
236.0694213090695
 30
0.0
 10
113.5374784339306
 20
236.0658804725404
 30
0.0
 10
113.718257096136
 20
236.0353914946487
 30
0.0
 10
113.9204021684261
 20
235.997627123268
 30
0.0
 10
114.1268860101125
 20
235.9478417946272
 30
0.0
 10
114.3271295401477
 20
235.8940345141351
 30
0.0
 10
114.5066040102269
 20
235.8602836377222
 30
0.0
 10
114.6450397123482
 20
235.8286596718504
 30
0.0
 10
114.7227181813565
 20
235.8230679780492
 30
0.0
 10
114.7514388144127
 20
235.8210005198735
 30
0.0
  0
SPLINE
  5
78
330
1F
100
AcDbEntity
  8
0
  6
Continuous
 62
     7
370
    15
100
AcDbSpline
210
0.0
220
0.0
230
1.0
 70
     8
 71
     3
 72
    11
 73
     7
 74
     0
 42
0.000000001
 43
0.00000001
 40
0.0
 40
0.0
 40
0.0
 40
0.0
 40
0.1767013003156111
 40
0.4410306569080021
 40
0.7353269864608536
 40
1.0
 40
1.0
 40
1.0
 40
1.0
 10
115.8295638144127
 20
240.0710005198735
 30
0.0
 10
115.770780048881
 20
240.0777312303205
 30
0.0
 10
115.6240610225826
 20
240.094530482191
 30
0.0
 10
115.385358327073
 20
240.1562478099123
 30
0.0
 10
115.1239158790418
 20
240.2464480962558
 30
0.0
 10
114.96126622513
 20
240.339459465307
 30
0.0
 10
114.8842513144127
 20
240.3835005198735
 30
0.0
  0
SPLINE
  5
79
330
1F
100
AcDbEntity
  8
0
  6
Continuous
 62
     7
370
    15
100
AcDbSpline
210
0.0
220
0.0
230
1.0
 70
     8
 71
     3
 72
    15
 73
    11
 74
     0
 42
0.000000001
 43
0.00000001
 40
0.0
 40
0.0
 40
0.0
 40
0.0
 40
0.1305268353242521
 40
0.2569680539750201
 40
0.3796512650052796
 40
0.5030394879068664
 40
0.6277178753499011
 40
0.7524562245082523
 40
0.8752856320682895
 40
1.0
 40
1.0
 40
1.0
 40
1.0
 10
114.8842513144127
 20
240.3835005198735
 30
0.0
 10
114.7993741827045
 20
240.4332695820584
 30
0.0
 10
114.6322766559172
 20
240.5312498864614
 30
0.0
 10
114.4119226016485
 20
240.7157642705918
 30
0.0
 10
114.229146416733
 20
240.9302069768778
 30
0.0
 10
114.0855520926709
 20
241.1707937913284
 30
0.0
 10
113.9729355932842
 20
241.4285467641624
 30
0.0
 10
113.8906359388934
 20
241.6970836676775
 30
0.0
 10
113.8424240644869
 20
241.9742116649976
 30
0.0
 10
113.8364698442145
 20
242.1606601546261
 30
0.0
 10
113.8334700644127
 20
242.2545942698736
 30
0.0
  0
SPLINE
  5
7A
330
1F
100
AcDbEntity
  8
0
  6
Continuous
 62
     7
370
    15
100
AcDbSpline
210
0.0
220
0.0
230
1.0
 70
     8
 71
     3
 72
    17
 73
    13
 74
     0
 42
0.000000001
 43
0.00000001
 40
0.0
 40
0.0
 40
0.0
 40
0.0
 40
0.0810778201577946
 40
0.1550618269575186
 40
0.222157482351878
 40
0.28588836174923
 40
0.4074132719275267
 40
0.5285918825910145
 40
0.6510855114354164
 40
0.7751472316411887
 40
0.8943018674593833
 40
1.0
 40
1.0
 40
1.0
 40
1.0
 10
113.8334700644127
 20
242.2545942698735
 30
0.0
 10
113.8358168221931
 20
242.3577028861908
 30
0.0
 10
113.8403050108018
 20
242.5548987455527
 30
0.0
 10
113.8917223696939
 20
242.8335852983169
 30
0.0
 10
113.973752487469
 20
243.0815650311836
 30
0.0
 10
114.1247459893014
 20
243.3656940815804
 30
0.0
 10
114.3783147566482
 20
243.6679576953299
 30
0.0
 10
114.7613062319448
 20
243.9365535369019
 30
0.0
 10
115.1905076858524
 20
244.1275438398272
 30
0.0
 10
115.6423911104377
 20
244.2408033223027
 30
0.0
 10
116.0813609747238
 20
244.3088323800212
 30
0.0
 10
116.367113229288
 20
244.3171095921666
 30
0.0
 10
116.5014388144127
 20
244.3210005198735
 30
0.0
  0
SPLINE
  5
7E
330
1F
100
AcDbEntity
  8
0
  6
Continuous
 62
     7
370
    15
100
AcDbSpline
210
0.0
220
0.0
230
1.0
 70
     8
 71
     3
 72
    13
 73
     9
 74
     0
 42
0.000000001
 43
0.00000001
 40
0.0
 40
0.0
 40
0.0
 40
0.0
 40
0.0670388734207487
 40
0.1593358899425556
 40
0.2808000223088749
 40
0.4287867344862353
 40
0.7339823365652836
 40
1.0
 40
1.0
 40
1.0
 40
1.0
 10
116.4467513144127
 20
248.0710005198735
 30
0.0
 10
116.4180584139701
 20
248.0732032813933
 30
0.0
 10
116.349862028891
 20
248.0784387358271
 30
0.0
 10
116.2310842305661
 20
248.0996536637728
 30
0.0
 10
116.079921604737
 20
248.135101606237
 30
0.0
 10
115.8427136398473
 20
248.2018844424416
 30
0.0
 10
115.547041149902
 20
248.2953998549283
 30
0.0
 10
115.3320365696645
 20
248.4141399839477
 30
0.0
 10
115.2319075644127
 20
248.4694380198735
 30
0.0
  0
SPLINE
  5
7F
330
1F
100
AcDbEntity
  8
0
  6
Continuous
 62
     7
370
    15
100
AcDbSpline
210
0.0
220
0.0
230
1.0
 70
     8
 71
     3
 72
    13
 73
     9
 74
     0
 42
0.000000001
 43
0.00000001
 40
0.0
 40
0.0
 40
0.0
 40
0.0
 40
0.1366973193441066
 40
0.2653360029003028
 40
0.3910415097609765
 40
0.5158089027138087
 40
0.7638916915889887
 40
1.0
 40
1.0
 40
1.0
 40
1.0
 10
115.2319075644127
 20
248.4694380198735
 30
0.0
 10
115.1713571280498
 20
248.5114448589076
 30
0.0
 10
115.0538258491961
 20
248.5929821327712
 30
0.0
 10
114.9132072757931
 20
248.7508618766765
 30
0.0
 10
114.7963922479158
 20
248.9187730918952
 30
0.0
 10
114.6911118626971
 20
249.1662534690597
 30
0.0
 10
114.6068041000677
 20
249.4848204580927
 30
0.0
 10
114.5911187722186
 20
249.7449389875216
 30
0.0
 10
114.5834700644127
 20
249.8717817698735
 30
0.0
  0
SPLINE
  5
80
330
1F
100
AcDbEntity
  8
0
  6
Continuous
 62
     7
370
    15
100
AcDbSpline
210
0.0
220
0.0
230
1.0
 70
     8
 71
     3
 72
    15
 73
    11
 74
     0
 42
0.000000001
 43
0.00000001
 40
0.0
 40
0.0
 40
0.0
 40
0.0
 40
0.1302241395387147
 40
0.2514098247611396
 40
0.3719798293610287
 40
0.4975567251671562
 40
0.623504462414136
 40
0.7476188938607422
 40
0.871308864321171
 40
1.0
 40
1.0
 40
1.0
 40
1.0
 10
114.5834700644127
 20
249.8717817698735
 30
0.0
 10
114.5897861591895
 20
249.9924327991112
 30
0.0
 10
114.6019799681611
 20
250.2253608432153
 30
0.0
 10
114.7094030294507
 20
250.5557782078603
 30
0.0
 10
114.8796295527808
 20
250.8527048321359
 30
0.0
 10
115.1204114707677
 20
251.1022846481641
 30
0.0
 10
115.4010372714686
 20
251.3087195067041
 30
0.0
 10
115.7113738207184
 20
251.4654641002224
 30
0.0
 10
116.0515836954401
 20
251.5517159089953
 30
0.0
 10
116.2848421970518
 20
251.5644879529566
 30
0.0
 10
116.4037825644127
 20
251.5710005198735
 30
0.0
  0
SPLINE
  5
87
330
1F
100
AcDbEntity
  8
0
  6
Continuous
 62
     7
370
    15
100
AcDbSpline
210
0.0
220
0.0
230
1.0
 70
     8
 71
     3
 72
    13
 73
     9
 74
     0
 42
0.000000001
 43
0.00000001
 40
0.0
 40
0.0
 40
0.0
 40
0.0
 40
0.0612352165632673
 40
0.1546726505436193
 40
0.2754268711558533
 40
0.4281794844702476
 40
0.741278902685854
 40
1.0
 40
1.0
 40
1.0
 40
1.0
 10
113.6303450644127
 20
255.8210005198736
 30
0.0
 10
113.6003880503181
 20
255.8198915800958
 30
0.0
 10
113.524720304984
 20
255.8170905341563
 30
0.0
 10
113.3902881917145
 20
255.805519765097
 30
0.0
 10
113.2126408595055
 20
255.7784746652911
 30
0.0
 10
112.927210159997
 20
255.7473975343675
 30
0.0
 10
112.5762880785822
 20
255.6902328317687
 30
0.0
 10
112.3069121359967
 20
255.6135212819886
 30
0.0
 10
112.1850325644127
 20
255.5788130198735
 30
0.0
  0
SPLINE
  5
88
330
1F
100
AcDbEntity
  8
0
  6
Continuous
 62
     7
370
    15
100
AcDbSpline
210
0.0
220
0.0
230
1.0
 70
     8
 71
     3
 72
    21
 73
    17
 74
     0
 42
0.000000001
 43
0.00000001
 40
0.0
 40
0.0
 40
0.0
 40
0.0
 40
0.0820997655916291
 40
0.1596565194865322
 40
0.232721123475507
 40
0.3018054946526406
 40
0.3677612665044094
 40
0.4309763794706201
 40
0.491475452621039
 40
0.5502072500869365
 40
0.6075494146856548
 40
0.6639263159906341
 40
0.7197843280679613
 40
0.7755822794488527
 40
0.8874498515241723
 40
1.0
 40
1.0
 40
1.0
 40
1.0
 10
112.1850325644127
 20
255.5788130198735
 30
0.0
 10
112.0137282654489
 20
255.5236044024237
 30
0.0
 10
111.6805988350718
 20
255.4162421506051
 30
0.0
 10
111.2071122727094
 20
255.2252994098468
 30
0.0
 10
110.7748774561859
 20
255.011575222368
 30
0.0
 10
110.3872045139488
 20
254.7702621166393
 30
0.0
 10
110.0340073157115
 20
254.5166558631423
 30
0.0
 10
109.7161776021875
 20
254.2478460611602
 30
0.0
 10
109.4367525091197
 20
253.960878084339
 30
0.0
 10
109.1944663166991
 20
253.6584985949258
 30
0.0
 10
108.9821614371049
 20
253.3452638378433
 30
0.0
 10
108.8017842572429
 20
253.0197789619016
 30
0.0
 10
108.6520887427144
 20
252.6826020504296
 30
0.0
 10
108.4981810468284
 20
252.2172309109983
 30
0.0
 10
108.3612742153193
 20
251.6150046817966
 30
0.0
 10
108.3427568884705
 20
251.1226261042386
 30
0.0
 10
108.3334700644127
 20
250.8756880198735
 30
0.0
  0
SPLINE
  5
89
330
1F
100
AcDbEntity
  8
0
  6
Continuous
 62
     7
370
    15
100
AcDbSpline
210
0.0
220
0.0
230
1.0
 70
     8
 71
     3
 72
    19
 73
    15
 74
     0
 42
0.000000001
 43
0.00000001
 40
0.0
 40
0.0
 40
0.0
 40
0.0
 40
0.1099220674938616
 40
0.2185292128400304
 40
0.3275554118494467
 40
0.4402118466962884
 40
0.498056360449799
 40
0.5590026836026641
 40
0.6221972558139446
 40
0.6891217272528195
 40
0.7602843817175118
 40
0.8355227974124684
 40
0.9154542976032652
 40
0.9999999999999999
 40
0.9999999999999999
 40
0.9999999999999999
 40
0.9999999999999999
 10
108.3334700644128
 20
250.8756880198736
 30
0.0
 10
108.3417258473412
 20
250.6641373036175
 30
0.0
 10
108.358138654941
 20
250.2435665069324
 30
0.0
 10
108.4905674086197
 20
249.6240674558673
 30
0.0
 10
108.7151894144515
 20
249.0282476557652
 30
0.0
 10
108.9645850298154
 20
248.5498265762
 30
0.0
 10
109.2186377622495
 20
248.1832900624254
 30
0.0
 10
109.4504168761707
 20
247.9202305895953
 30
0.0
 10
109.7135818253248
 20
247.6631316119993
 30
0.0
 10
110.0166044497684
 20
247.4212231091754
 30
0.0
 10
110.3570525621723
 20
247.1915343885011
 30
0.0
 10
110.7343109925852
 20
246.9739087727675
 30
0.0
 10
111.1438178696867
 20
246.7613893365129
 30
0.0
 10
111.4342038609053
 20
246.6356393780231
 30
0.0
 10
111.5834700644127
 20
246.5710005198736
 30
0.0
  0
SPLINE
  5
8A
330
1F
100
AcDbEntity
  8
0
  6
Continuous
 62
     7
370
    15
100
AcDbSpline
210
0.0
220
0.0
230
1.0
 70
     8
 71
     3
 72
    23
 73
    19
 74
     0
 42
0.000000001
 43
0.00000001
 40
0.0
 40
0.0
 40
0.0
 40
0.0
 40
0.0790141537802219
 40
0.1534469509442108
 40
0.2245129868109643
 40
0.2916126495374615
 40
0.3555794505380576
 40
0.4165932124953169
 40
0.4757509503033229
 40
0.5332237162775642
 40
0.5895082792021146
 40
0.6461719432417221
 40
0.7025925963820796
 40
0.759442052654869
 40
0.8173027032488898
 40
0.8764091040896168
 40
0.937213015857001
 40
0.9999999999999999
 40
0.9999999999999999
 40
0.9999999999999999
 40
0.9999999999999999
 10
111.5834700644127
 20
246.5710005198735
 30
0.0
 10
111.4096731064004
 20
246.5168401709907
 30
0.0
 10
111.0721561931073
 20
246.4116597697518
 30
0.0
 10
110.5885863432988
 20
246.2274853446343
 30
0.0
 10
110.1426004442355
 20
246.0235743257835
 30
0.0
 10
109.7400130929705
 20
245.7889840019045
 30
0.0
 10
109.3688561324989
 20
245.5469925639881
 30
0.0
 10
109.0438466007084
 20
245.2732290184213
 30
0.0
 10
108.752302017995
 20
244.9852842548295
 30
0.0
 10
108.5019904507067
 20
244.6744483503747
 30
0.0
 10
108.2850734195299
 20
244.3466401920199
 30
0.0
 10
108.099358495782
 20
244.0031544327028
 30
0.0
 10
107.9364216823227
 20
243.6467109484892
 30
0.0
 10
107.8089474528986
 20
243.2731965419226
 30
0.0
 10
107.7056191692895
 20
242.8859352131796
 30
0.0
 10
107.6373087857126
 20
242.4817645648529
 30
0.0
 10
107.5928326842193
 20
242.0628763007132
 30
0.0
 10
107.5866241439696
 20
241.7781486419321
 30
0.0
 10
107.5834700644127
 20
241.6335005198735
 30
0.0
  0
SPLINE
  5
8B
330
1F
100
AcDbEntity
  8
0
  6
Continuous
 62
     7
370
    15
100
AcDbSpline
210
0.0
220
0.0
230
1.0
 70
     8
 71
     3
 72
    21
 73
    17
 74
     0
 42
0.000000001
 43
0.00000001
 40
0.0
 40
0.0
 40
0.0
 40
0.0
 40
0.0767510897318593
 40
0.1479542362243356
 40
0.2154454624785885
 40
0.280441854771613
 40
0.3442701984329516
 40
0.4063801497077968
 40
0.468838464150921
 40
0.5315331891295965
 40
0.593849226750984
 40
0.6556818087253607
 40
0.7176350397549
 40
0.7797948767275434
 40
0.8969687892938802
 40
1.0
 40
1.0
 40
1.0
 40
1.0
 10
93.3662825644127
 20
251.3952192698735
 30
0.0
 10
93.55106644945161
 20
251.3582616838208
 30
0.0
 10
93.90727713874624
 20
251.2870179863536
 30
0.0
 10
94.40665764349437
 20
251.1068298653948
 30
0.0
 10
94.84530164583406
 20
250.8629544157458
 30
0.0
 10
95.22335965640544
 20
250.5615406276467
 30
0.0
 10
95.54584925842197
 20
250.2201907962597
 30
0.0
 10
95.8251037692389
 20
249.8513876130763
 30
0.0
 10
96.07135569316615
 20
249.4622768837445
 30
0.0
 10
96.26104429400692
 20
249.0423722674584
 30
0.0
 10
96.42324062676829
 20
248.6133300887623
 30
0.0
 10
96.54554631100088
 20
248.1731575804511
 30
0.0
 10
96.6472608288612
 20
247.7280570749123
 30
0.0
 10
96.72129409010562
 20
247.1403336382988
 30
0.0
 10
96.77917452901977
 20
246.4497926188411
 30
0.0
 10
96.79061650677056
 20
245.9096595138965
 30
0.0
 10
96.7959700644127
 20
245.6569380198735
 30
0.0
  0
SPLINE
  5
8C
330
1F
100
AcDbEntity
  8
0
  6
Continuous
 62
     7
370
    15
100
AcDbSpline
210
0.0
220
0.0
230
1.0
 70
     8
 71
     3
 72
    21
 73
    17
 74
     0
 42
0.000000001
 43
0.00000001
 40
0.0
 40
0.0
 40
0.0
 40
0.0
 40
0.1123594873994258
 40
0.233613138113243
 40
0.2957106669878467
 40
0.3565635369083622
 40
0.4168069888236151
 40
0.4770931581810883
 40
0.5364107447833671
 40
0.596635201442934
 40
0.6566931933431948
 40
0.719093997434993
 40
0.7832732285454194
 40
0.8505041854222285
 40
0.9224279681291032
 40
1.0
 40
1.0
 40
1.0
 40
1.0
 10
96.7959700644127
 20
245.6569380198735
 30
0.0
 10
96.79083711790344
 20
245.3833815445837
 30
0.0
 10
96.78016491060218
 20
244.8146143837256
 30
0.0
 10
96.72266847129694
 20
244.0966143182457
 30
0.0
 10
96.64794118405626
 20
243.5062107138569
 30
0.0
 10
96.54608780486815
 20
243.0714443343737
 30
0.0
 10
96.42338299684984
 20
242.6469230560081
 30
0.0
 10
96.26380100348491
 20
242.2385527863358
 30
0.0
 10
96.06852730693058
 20
241.8457056611913
 30
0.0
 10
95.82519316980417
 20
241.4812041648501
 30
0.0
 10
95.54399678033234
 20
241.135870340115
 30
0.0
 10
95.22161419896021
 20
240.8142375048791
 30
0.0
 10
94.84374086266659
 20
240.5281544104996
 30
0.0
 10
94.40289158127098
 20
240.2993577664361
 30
0.0
 10
93.90755200736938
 20
240.1125373185991
 30
0.0
 10
93.55119368739405
 20
240.0363267484137
 30
0.0
 10
93.3662825644127
 20
239.9967817698735
 30
0.0
  0
SPLINE
  5
8F
330
1F
100
AcDbEntity
  8
0
  6
Continuous
 62
     7
370
    15
100
AcDbSpline
210
0.0
220
0.0
230
1.0
 70
     8
 71
     3
 72
    15
 73
    11
 74
     0
 42
0.000000001
 43
0.00000001
 40
0.0
 40
0.0
 40
0.0
 40
0.0
 40
0.0483198706278629
 40
0.1411566572439003
 40
0.2606159353049047
 40
0.4002283885809776
 40
0.5509736742701064
 40
0.7103383376578553
 40
0.864202457106575
 40
1.0
 40
1.0
 40
1.0
 40
1.0
 10
93.98737631441267
 20
235.3210005198735
 30
0.0
 10
94.01863512641911
 20
235.3235004084607
 30
0.0
 10
94.10995137695768
 20
235.3308033236356
 30
0.0
 10
94.27813100408339
 20
235.349215684224
 30
0.0
 10
94.50403329755125
 20
235.3828279679773
 30
0.0
 10
94.76849505284957
 20
235.4122340590475
 30
0.0
 10
95.05537862390372
 20
235.4667136491995
 30
0.0
 10
95.35132881715599
 20
235.5220476645749
 30
0.0
 10
95.63622940113103
 20
235.5834731651362
 30
0.0
 10
95.819449059865
 20
235.6255112245347
 30
0.0
 10
95.90534506441273
 20
235.6452192698735
 30
0.0
  0
SPLINE
  5
90
330
1F
100
AcDbEntity
  8
0
  6
Continuous
 62
     7
370
    15
100
AcDbSpline
210
0.0
220
0.0
230
1.0
 70
     8
 71
     3
 72
    27
 73
    23
 74
     0
 42
0.000000001
 43
0.00000001
 40
0.0
 40
0.0
 40
0.0
 40
0.0
 40
0.0411962126842756
 40
0.0808663012634203
 40
0.1191775505424793
 40
0.1562972734960193
 40
0.1923090418935682
 40
0.2271923105889834
 40
0.2610239906279839
 40
0.2940562840157743
 40
0.3580430004198725
 40
0.4199315952596808
 40
0.4802595554394066
 40
0.5396512268098501
 40
0.5983770932372345
 40
0.6565276660566871
 40
0.714557362621651
 40
0.7727920341535662
 40
0.8307777132432486
 40
0.8880961044768406
 40
0.9442587325699829
 40
1.0
 40
1.0
 40
1.0
 40
1.0
 10
95.90534506441273
 20
235.6452192698735
 30
0.0
 10
96.08303763230472
 20
235.6926723270428
 30
0.0
 10
96.43184010202565
 20
235.7858205308918
 30
0.0
 10
96.93551241527136
 20
235.9576155496103
 30
0.0
 10
97.4176567786836
 20
236.1352333493736
 30
0.0
 10
97.87486722301051
 20
236.3314950773748
 30
0.0
 10
98.3099220540736
 20
236.5399461237059
 30
0.0
 10
98.71528933570039
 20
236.7731911172341
 30
0.0
 10
99.10042113992327
 20
237.0141562574179
 30
0.0
 10
99.57439259614576
 20
237.3559206192887
 30
0.0
 10
100.1183999759394
 20
237.8127879360201
 30
0.0
 10
100.7026117898963
 20
238.4053373023913
 30
0.0
 10
101.2191259050621
 20
239.0316692094305
 30
0.0
 10
101.6576363764315
 20
239.6985052286976
 30
0.0
 10
102.0215009002741
 20
240.3969047442932
 30
0.0
 10
102.3353211053998
 20
241.1127148299265
 30
0.0
 10
102.5750066571852
 20
241.8544756836956
 30
0.0
 10
102.7589746441967
 20
242.6108933926426
 30
0.0
 10
102.8818720348935
 20
243.3760880943768
 30
0.0
 10
102.9777632026528
 20
244.1354619714843
 30
0.0
 10
103.0334810595692
 20
244.8891777209907
 30
0.0
 10
103.041817526119
 20
245.3886239551595
 30
0.0
 10
103.0459700644127
 20
245.6374067698735
 30
0.0
  0
SPLINE
  5
91
330
1F
100
AcDbEntity
  8
0
  6
Continuous
 62
     7
370
    15
100
AcDbSpline
210
0.0
220
0.0
230
1.0
 70
     8
 71
     3
 72
    15
 73
    11
 74
     0
 42
0.000000001
 43
0.00000001
 40
0.0
 40
0.0
 40
0.0
 40
0.0
 40
0.0463554044013661
 40
0.1353577808519973
 40
0.2540855462353592
 40
0.3914978528547789
 40
0.5442654621695766
 40
0.7013494212897817
 40
0.8580827950453257
 40
1.0
 40
1.0
 40
1.0
 40
1.0
 10
103.0459700644127
 20
245.6374067698735
 30
0.0
 10
103.0459312636243
 20
245.6699582955643
 30
0.0
 10
103.0458179653222
 20
245.7650087505812
 30
0.0
 10
103.0474683373636
 20
245.9434585664702
 30
0.0
 10
103.0378968730451
 20
246.1856898492302
 30
0.0
 10
103.0246440555135
 20
246.4725734673374
 30
0.0
 10
102.9922139531211
 20
246.7851650958381
 30
0.0
 10
102.9506744736166
 20
247.1099568654774
 30
0.0
 10
102.8965996162184
 20
247.4263964202295
 30
0.0
 10
102.8283852006474
 20
247.6250424551071
 30
0.0
 10
102.7959700644127
 20
247.7194380198735
 30
0.0
  0
SPLINE
  5
92
330
1F
100
AcDbEntity
  8
0
  6
Continuous
 62
     7
370
    15
100
AcDbSpline
210
0.0
220
0.0
230
1.0
 70
     8
 71
     3
 72
    15
 73
    11
 74
     0
 42
0.000000001
 43
0.00000001
 40
0.0
 40
0.0
 40
0.0
 40
0.0
 40
0.079181110162813
 40
0.1804045966405129
 40
0.3026120591373485
 40
0.4358445338534573
 40
0.5803498387469608
 40
0.7305671045718848
 40
0.875181244204883
 40
1.0
 40
1.0
 40
1.0
 40
1.0
 10
102.7959700644127
 20
247.7194380198735
 30
0.0
 10
102.7785415323123
 20
247.7686926070522
 30
0.0
 10
102.7388327268011
 20
247.8809132353609
 30
0.0
 10
102.6172969799053
 20
248.04100607013
 30
0.0
 10
102.4613792119901
 20
248.2151267370927
 30
0.0
 10
102.2710803949478
 20
248.3965241938497
 30
0.0
 10
102.0674184800522
 20
248.5899673290162
 30
0.0
 10
101.8538184255674
 20
248.7838432144761
 30
0.0
 10
101.6473953338623
 20
248.9664459917365
 30
0.0
 10
101.5220205356412
 20
249.0912897914991
 30
0.0
 10
101.4639388144127
 20
249.1491255198735
 30
0.0
  0
SPLINE
  5
93
330
1F
100
AcDbEntity
  8
0
  6
Continuous
 62
     7
370
    15
100
AcDbSpline
210
0.0
220
0.0
230
1.0
 70
     8
 71
     3
 72
    15
 73
    11
 74
     0
 42
0.000000001
 43
0.00000001
 40
0.0
 40
0.0
 40
0.0
 40
0.0
 40
0.1167781717575014
 40
0.2408940579278658
 40
0.3700010367983613
 40
0.5008682402679012
 40
0.6317288657441288
 40
0.7596502518422523
 40
0.8828898486923635
 40
1.0
 40
1.0
 40
1.0
 40
1.0
 10
101.4639388144127
 20
249.1491255198736
 30
0.0
 10
101.2073376509915
 20
249.4107553825059
 30
0.0
 10
100.6780118823547
 20
249.950454526071
 30
0.0
 10
99.86677372506556
 20
250.7811478746342
 30
0.0
 10
99.02644100965921
 20
251.6452212405096
 30
0.0
 10
98.17167451065394
 20
252.5247830999631
 30
0.0
 10
97.31539181490476
 20
253.3976729558255
 30
0.0
 10
96.46869080695092
 20
254.2463997602856
 30
0.0
 10
95.64009892277846
 20
255.0521032648687
 30
0.0
 10
95.09090698435872
 20
255.569096253106
 30
0.0
 10
94.82331381441267
 20
255.8210005198736
 30
0.0
  0
SPLINE
  5
94
330
1F
100
AcDbEntity
  8
0
  6
Continuous
 62
     7
370
    15
100
AcDbSpline
210
0.0
220
0.0
230
1.0
 70
     8
 71
     3
 72
    11
 73
     7
 74
     0
 42
0.000000001
 43
0.00000001
 40
0.0
 40
0.0
 40
0.0
 40
0.0
 40
0.2155669462606885
 40
0.4808968657079144
 40
0.768687570201283
 40
1.0
 40
1.0
 40
1.0
 40
1.0
 10
94.82331381441267
 20
255.8210005198736
 30
0.0
 10
94.79750812231623
 20
255.8606802449546
 30
0.0
 10
94.73993957267605
 20
255.949199638835
 30
0.0
 10
94.58013982046408
 20
256.0138150583489
 30
0.0
 10
94.41844395541885
 20
256.0586359843988
 30
0.0
 10
94.30670047502458
 20
256.0671892040095
 30
0.0
 10
94.2569075644127
 20
256.0710005198736
 30
0.0
  0
SPLINE
  5
A8
330
1F
100
AcDbEntity
  8
0
  6
Continuous
 62
     7
370
    15
100
AcDbSpline
210
0.0
220
0.0
230
1.0
 70
     8
 71
     3
 72
    17
 73
    13
 74
     0
 42
0.000000001
 43
0.00000001
 40
0.0
 40
0.0
 40
0.0
 40
0.0
 40
0.0879213670643436
 40
0.1690689390797317
 40
0.2444252225648181
 40
0.3142308934414577
 40
0.4438245843387721
 40
0.5656240075500909
 40
0.6818537690413278
 40
0.7930236498904527
 40
0.8999927955066713
 40
0.9999999999999999
 40
0.9999999999999999
 40
0.9999999999999999
 40
0.9999999999999999
 10
179.2858138144127
 20
249.5241255198735
 30
0.0
 10
179.3361547044427
 20
249.6447025455319
 30
0.0
 10
179.4329580317098
 20
249.876566886205
 30
0.0
 10
179.6008526871476
 20
250.1991809029689
 30
0.0
 10
179.784282989033
 20
250.4816850078707
 30
0.0
 10
180.0410054038863
 20
250.7997249188025
 30
0.0
 10
180.3910334166868
 20
251.1285771349241
 30
0.0
 10
180.8537606102263
 20
251.4236529780604
 30
0.0
 10
181.3329321833004
 20
251.6290132222909
 30
0.0
 10
181.8172624370702
 20
251.7462170364028
 30
0.0
 10
182.2866813464071
 20
251.8087663757839
 30
0.0
 10
182.5942388685921
 20
251.8170149560496
 30
0.0
 10
182.7428450644127
 20
251.8210005198736
 30
0.0
  0
SPLINE
  5
A9
330
1F
100
AcDbEntity
  8
0
  6
Continuous
 62
     7
370
    15
100
AcDbSpline
210
0.0
220
0.0
230
1.0
 70
     8
 71
     3
 72
    23
 73
    19
 74
     0
 42
0.000000001
 43
0.00000001
 40
0.0
 40
0.0
 40
0.0
 40
0.0
 40
0.0840402984449003
 40
0.1603857887550398
 40
0.2304124748387216
 40
0.295982138685869
 40
0.3590308917592414
 40
0.4200139192026246
 40
0.4808113596628987
 40
0.5412520981736675
 40
0.6015200044797603
 40
0.6619787179317463
 40
0.7223672988569037
 40
0.7839107916835216
 40
0.8435261148059793
 40
0.8991960730372953
 40
0.9515091791485617
 40
0.9999999999999999
 40
0.9999999999999999
 40
0.9999999999999999
 40
0.9999999999999999
 10
182.7428450644127
 20
251.8210005198736
 30
0.0
 10
182.9778420300179
 20
251.8144903104421
 30
0.0
 10
183.4263194198065
 20
251.8020659724287
 30
0.0
 10
184.0608453082447
 20
251.6820194254012
 30
0.0
 10
184.6265681214371
 20
251.4972061242385
 30
0.0
 10
185.1079060025549
 20
251.2142658380357
 30
0.0
 10
185.522588467261
 20
250.8831281126842
 30
0.0
 10
185.8869392819759
 20
250.5156966675626
 30
0.0
 10
186.1999562788274
 20
250.1127116267429
 30
0.0
 10
186.4611105715032
 20
249.6769811536547
 30
0.0
 10
186.6764211767781
 20
249.218099310997
 30
0.0
 10
186.8461109899463
 20
248.7409839788267
 30
0.0
 10
186.9827729849755
 20
248.2494735807466
 30
0.0
 10
187.0666374171162
 20
247.7487158177631
 30
0.0
 10
187.1236003020777
 20
247.2580213624993
 30
0.0
 10
187.1606279112936
 20
246.7913571274055
 30
0.0
 10
187.1921679486259
 20
246.3552744164761
 30
0.0
 10
187.194735140089
 20
246.0736573651342
 30
0.0
 10
187.1959700644127
 20
245.9381880198735
 30
0.0
  0
SPLINE
  5
AA
330
1F
100
AcDbEntity
  8
0
  6
Continuous
 62
     7
370
    15
100
AcDbSpline
210
0.0
220
0.0
230
1.0
 70
     8
 71
     3
 72
    21
 73
    17
 74
     0
 42
0.000000001
 43
0.00000001
 40
0.0
 40
0.0
 40
0.0
 40
0.0
 40
0.104931833574543
 40
0.2223971521388157
 40
0.2840372945985504
 40
0.3449540006988444
 40
0.4055250107166543
 40
0.4664289482495906
 40
0.5272263767689582
 40
0.5885375895282706
 40
0.6504819017010353
 40
0.714216689748538
 40
0.7799064694410539
 40
0.8482556479173204
 40
0.9210782617571402
 40
1.0
 40
1.0
 40
1.0
 40
1.0
 10
187.1959700644127
 20
245.9381880198735
 30
0.0
 10
187.1906498861139
 20
245.669855046156
 30
0.0
 10
187.1793740657815
 20
245.1011383169535
 30
0.0
 10
187.1220771473585
 20
244.3765813029235
 30
0.0
 10
187.0468779282288
 20
243.7670682063211
 30
0.0
 10
186.9485613120925
 20
243.3084235188147
 30
0.0
 10
186.8129500633202
 20
242.8619173685783
 30
0.0
 10
186.6536116261495
 20
242.4231677631739
 30
0.0
 10
186.4436093993119
 20
242.0040001655071
 30
0.0
 10
186.1956804389548
 20
241.6026578852062
 30
0.0
 10
185.8924416306666
 20
241.2318485651743
 30
0.0
 10
185.5566373504311
 20
240.8747340059967
 30
0.0
 10
185.1552196111771
 20
240.5625339177696
 30
0.0
 10
184.686418742407
 20
240.3136163161824
 30
0.0
 10
184.1577487093899
 20
240.1140484352182
 30
0.0
 10
183.7768741628826
 20
240.0369042215693
 30
0.0
 10
183.5787825644127
 20
239.9967817698735
 30
0.0
  0
SPLINE
  5
AD
330
1F
100
AcDbEntity
  8
0
  6
Continuous
 62
     7
370
    15
100
AcDbSpline
210
0.0
220
0.0
230
1.0
 70
     8
 71
     3
 72
    15
 73
    11
 74
     0
 42
0.000000001
 43
0.00000001
 40
0.0
 40
0.0
 40
0.0
 40
0.0
 40
0.0439383458998688
 40
0.1351822719938967
 40
0.2577729931398016
 40
0.4000893723769978
 40
0.5545720474958706
 40
0.7125194764225107
 40
0.8649770744534782
 40
1.0
 40
1.0
 40
1.0
 40
1.0
 10
184.1217513144127
 20
235.5710005198735
 30
0.0
 10
184.1569105398337
 20
235.5735550018389
 30
0.0
 10
184.2650826586658
 20
235.5814142115741
 30
0.0
 10
184.4711900895403
 20
235.5990909654403
 30
0.0
 10
184.7545298231055
 20
235.6363471338915
 30
0.0
 10
185.0889334760551
 20
235.6744290162162
 30
0.0
 10
185.4485302112101
 20
235.7366789924431
 30
0.0
 10
185.8172396375558
 20
235.7933687516458
 30
0.0
 10
186.1670589119401
 20
235.867220752775
 30
0.0
 10
186.391388783516
 20
235.9208242174089
 30
0.0
 10
186.4967513144127
 20
235.9460005198735
 30
0.0
  0
SPLINE
  5
AE
330
1F
100
AcDbEntity
  8
0
  6
Continuous
 62
     7
370
    15
100
AcDbSpline
210
0.0
220
0.0
230
1.0
 70
     8
 71
     3
 72
    27
 73
    23
 74
     0
 42
0.000000001
 43
0.00000001
 40
0.0
 40
0.0
 40
0.0
 40
0.0
 40
0.0388255391191575
 40
0.0766708590374174
 40
0.1132760627112905
 40
0.1490248571335303
 40
0.1840229107902901
 40
0.21826927508984
 40
0.2517721864992113
 40
0.2850962731446982
 40
0.3502025211282868
 40
0.4135696795210761
 40
0.4757010575643948
 40
0.5374515757428018
 40
0.5985260703096534
 40
0.6589243027915633
 40
0.7188568711847061
 40
0.7786778215079267
 40
0.837382981977831
 40
0.8938499899648898
 40
0.9479119425182936
 40
1.0
 40
1.0
 40
1.0
 40
1.0
 10
186.4967513144127
 20
235.9460005198735
 30
0.0
 10
186.6626120982589
 20
235.9831090764602
 30
0.0
 10
186.9901462179804
 20
236.0563893186844
 30
0.0
 10
187.4654794216274
 20
236.1984287450384
 30
0.0
 10
187.9205944622604
 20
236.3585451752508
 30
0.0
 10
188.3546825753283
 20
236.5387537625346
 30
0.0
 10
188.7699796516736
 20
236.7361753417009
 30
0.0
 10
189.1603376989157
 20
236.9600823001547
 30
0.0
 10
189.5306244399042
 20
237.2026995096468
 30
0.0
 10
189.9882173175257
 20
237.5554510189021
 30
0.0
 10
190.5160104052522
 20
238.0292042938366
 30
0.0
 10
191.0840075355031
 20
238.6413815757135
 30
0.0
 10
191.5898745585192
 20
239.2877338472822
 30
0.0
 10
192.0176044391354
 20
239.9767098489945
 30
0.0
 10
192.3781900474027
 20
240.6936665035419
 30
0.0
 10
192.6892982929534
 20
241.4247415140958
 30
0.0
 10
192.9403067411469
 20
242.1730925893471
 30
0.0
 10
193.1287612141123
 20
242.9317424277525
 30
0.0
 10
193.2660972813399
 20
243.6855258784174
 30
0.0
 10
193.3679348573505
 20
244.4192180670763
 30
0.0
 10
193.4351063640367
 20
245.1283414100243
 30
0.0
 10
193.442394002985
 20
245.5929942752623
 30
0.0
 10
193.4459700644127
 20
245.8210005198735
 30
0.0
  0
SPLINE
  5
AF
330
1F
100
AcDbEntity
  8
0
  6
Continuous
 62
     7
370
    15
100
AcDbSpline
210
0.0
220
0.0
230
1.0
 70
     8
 71
     3
 72
    15
 73
    11
 74
     0
 42
0.000000001
 43
0.00000001
 40
0.0
 40
0.0
 40
0.0
 40
0.0
 40
0.1379418982137234
 40
0.2807666954792573
 40
0.4235967094220128
 40
0.5566781053184999
 40
0.6840085342902689
 40
0.803021373262229
 40
0.9103618888997705
 40
1.0
 40
1.0
 40
1.0
 40
1.0
 10
193.4459700644127
 20
245.8210005198735
 30
0.0
 10
193.4458803366317
 20
245.9681360477671
 30
0.0
 10
193.4456977048649
 20
246.2676154408247
 30
0.0
 10
193.447104661388
 20
246.7194421777804
 30
0.0
 10
193.4418425920725
 20
247.1660927377762
 30
0.0
 10
193.4386498492159
 20
247.5960962511278
 30
0.0
 10
193.4113605621016
 20
248.0008226113258
 30
0.0
 10
193.3442154897126
 20
248.3716733138116
 30
0.0
 10
193.2569344691186
 20
248.7009233932307
 30
0.0
 10
193.1452371316274
 20
248.880092088266
 30
0.0
 10
193.0944075644127
 20
248.9616255198735
 30
0.0
  0
SPLINE
  5
B0
330
1F
100
AcDbEntity
  8
0
  6
Continuous
 62
     7
370
    15
100
AcDbSpline
210
0.0
220
0.0
230
1.0
 70
     8
 71
     3
 72
    15
 73
    11
 74
     0
 42
0.000000001
 43
0.00000001
 40
0.0
 40
0.0
 40
0.0
 40
0.0
 40
0.1218582942867242
 40
0.2447265213321013
 40
0.368763165939277
 40
0.494122281486817
 40
0.6203651695529284
 40
0.746754643229482
 40
0.8730623378785894
 40
1.0
 40
1.0
 40
1.0
 40
1.0
 10
193.0944075644127
 20
248.9616255198735
 30
0.0
 10
192.8545500035436
 20
249.2695013003821
 30
0.0
 10
192.3728469989981
 20
249.8878044631442
 30
0.0
 10
191.6045187462155
 20
250.7850974542602
 30
0.0
 10
190.8000794670844
 20
251.6651998436489
 30
0.0
 10
189.9554376484276
 20
252.5220110551868
 30
0.0
 10
189.0834629859138
 20
253.3619050275864
 30
0.0
 10
188.1791543356685
 20
254.1713344013714
 30
0.0
 10
187.2580517874055
 20
254.965118442718
 30
0.0
 10
186.6234401872736
 20
255.470183531291
 30
0.0
 10
186.3053450644127
 20
255.7233442698735
 30
0.0
  0
SPLINE
  5
B1
330
1F
100
AcDbEntity
  8
0
  6
Continuous
 62
     7
370
    15
100
AcDbSpline
210
0.0
220
0.0
230
1.0
 70
     8
 71
     3
 72
    15
 73
    11
 74
     0
 42
0.000000001
 43
0.00000001
 40
0.0
 40
0.0
 40
0.0
 40
0.0
 40
0.0500617710399768
 40
0.14681929769999
 40
0.2753300840947346
 40
0.4195849070749753
 40
0.5750783246598621
 40
0.7349989812843485
 40
0.8831391823636738
 40
1.0
 40
1.0
 40
1.0
 40
1.0
 10
186.3053450644127
 20
255.7233442698736
 30
0.0
 10
186.2693506396098
 20
255.7415678748837
 30
0.0
 10
186.163787531056
 20
255.795013384972
 30
0.0
 10
185.9433771196669
 20
255.8325024546158
 30
0.0
 10
185.6529945112902
 20
255.8884549885057
 30
0.0
 10
185.3118819433207
 20
255.9351192566409
 30
0.0
 10
184.946654698628
 20
255.9877691289932
 30
0.0
 10
184.5765502363267
 20
256.0275660186322
 30
0.0
 10
184.236876511931
 20
256.0612535217273
 30
0.0
 10
184.0241525942001
 20
256.0680176552235
 30
0.0
 10
183.9303450644128
 20
256.0710005198736
 30
0.0
  0
SPLINE
  5
B3
330
1F
100
AcDbEntity
  8
0
  6
Continuous
 62
     7
370
    15
100
AcDbSpline
210
0.0
220
0.0
230
1.0
 70
     8
 71
     3
 72
    15
 73
    11
 74
     0
 42
0.000000001
 43
0.00000001
 40
0.0
 40
0.0
 40
0.0
 40
0.0
 40
0.1335511167682861
 40
0.2654874021834569
 40
0.3973332577679207
 40
0.5279828931416635
 40
0.6547626504581983
 40
0.7752814459098623
 40
0.8898988134732193
 40
1.0
 40
1.0
 40
1.0
 40
1.0
 10
173.1959700644127
 20
238.6842817698735
 30
0.0
 10
173.506575510858
 20
238.4768906905883
 30
0.0
 10
174.1240307225868
 20
238.0646161981856
 30
0.0
 10
175.081740291301
 20
237.5001886576466
 30
0.0
 10
176.0601708366408
 20
236.9903312280753
 30
0.0
 10
177.0488857342863
 20
236.5341463787726
 30
0.0
 10
178.0341549798121
 20
236.1490287442338
 30
0.0
 10
179.0047392721654
 20
235.8598142082323
 30
0.0
 10
179.9503204271412
 20
235.6553389365009
 30
0.0
 10
180.5766157490688
 20
235.5987341287801
 30
0.0
 10
180.8834700644127
 20
235.5710005198735
 30
0.0
  0
SPLINE
  5
B6
330
1F
100
AcDbEntity
  8
0
  6
Continuous
 62
     7
370
    15
100
AcDbSpline
210
0.0
220
0.0
230
1.0
 70
     8
 71
     3
 72
    13
 73
     9
 74
     0
 42
0.000000001
 43
0.00000001
 40
0.0
 40
0.0
 40
0.0
 40
0.0
 40
0.2532188370697956
 40
0.5022430737384196
 40
0.6265156057359349
 40
0.750295733340374
 40
0.8740521762564637
 40
1.0
 40
1.0
 40
1.0
 40
1.0
 10
182.3405013144127
 20
239.9264692698735
 30
0.0
 10
182.010963338298
 20
239.9795710566703
 30
0.0
 10
181.3573462221601
 20
240.0848949927977
 30
0.0
 10
180.5628035632314
 20
240.3163036186398
 30
0.0
 10
179.9510242589391
 20
240.5514070056099
 30
0.0
 10
179.5135102910683
 20
240.7728988529414
 30
0.0
 10
179.0909212271789
 20
241.0262759123519
 30
0.0
 10
178.8283884395694
 20
241.2247824591925
 30
0.0
 10
178.6959700644127
 20
241.3249067698735
 30
0.0
  0
SPLINE
  5
C8
330
1F
100
AcDbEntity
  8
0
  6
Continuous
 62
     7
370
    15
100
AcDbSpline
210
0.0
220
0.0
230
1.0
 70
     8
 71
     3
 72
    21
 73
    17
 74
     0
 42
0.000000001
 43
0.00000001
 40
0.0
 40
0.0
 40
0.0
 40
0.0
 40
0.1121622585856934
 40
0.2258665843576897
 40
0.2830754445549262
 40
0.3405279770877221
 40
0.3981343345276405
 40
0.4564970609456612
 40
0.515583876030222
 40
0.5761296606884643
 40
0.6386562123240862
 40
0.7034368969749693
 40
0.7711653095138781
 40
0.8427109134378565
 40
0.9187868481472313
 40
1.0
 40
1.0
 40
1.0
 40
1.0
 10
82.2959700644127
 20
245.7897505198735
 30
0.0
 10
82.30404811923167
 20
245.3519331285008
 30
0.0
 10
82.32031529032136
 20
244.4702789962761
 30
0.0
 10
82.43591757960505
 20
243.370153389966
 30
0.0
 10
82.57949812885714
 20
242.4900099978677
 30
0.0
 10
82.74570959607489
 20
241.8376997586998
 30
0.0
 10
82.9580108882224
 20
241.1946190053257
 30
0.0
 10
83.21424178779837
 20
240.5606679323507
 30
0.0
 10
83.52736940398691
 20
239.9394195214807
 30
0.0
 10
83.90679901614982
 20
239.3373140507741
 30
0.0
 10
84.33957595468164
 20
238.744661849043
 30
0.0
 10
84.84264318432665
 20
238.1720732429572
 30
0.0
 10
85.41926378720181
 20
237.621077705107
 30
0.0
 10
86.08394614723076
 20
237.1044958375585
 30
0.0
 10
86.83814065950422
 20
236.6237045377299
 30
0.0
 10
87.38222844766842
 20
236.3390632478487
 30
0.0
 10
87.66315756441267
 20
236.1920942698735
 30
0.0
  0
SPLINE
  5
C9
330
1F
100
AcDbEntity
  8
0
  6
Continuous
 62
     7
370
    15
100
AcDbSpline
210
0.0
220
0.0
230
1.0
 70
     8
 71
     3
 72
    17
 73
    13
 74
     0
 42
0.000000001
 43
0.00000001
 40
0.0
 40
0.0
 40
0.0
 40
0.0
 40
0.0261900178562879
 40
0.0624331064792757
 40
0.1095029771470626
 40
0.1670197914831587
 40
0.2973332834051561
 40
0.4412845895511742
 40
0.5917509253712279
 40
0.7432945611736738
 40
0.8829524433425976
 40
0.9999999999999999
 40
0.9999999999999999
 40
0.9999999999999999
 40
0.9999999999999999
 10
87.66315756441269
 20
236.1920942698736
 30
0.0
 10
87.69167548219764
 20
236.1800392164926
 30
0.0
 10
87.75965795580285
 20
236.1513017625712
 30
0.0
 10
87.88271895117333
 20
236.1109543470018
 30
0.0
 10
88.03774444519559
 20
236.0503615954033
 30
0.0
 10
88.29847797602375
 20
235.9550502991601
 30
0.0
 10
88.66994328334934
 20
235.8293826738864
 30
0.0
 10
89.15007699628077
 20
235.6827586153721
 30
0.0
 10
89.66000257354658
 20
235.5489566944519
 30
0.0
 10
90.16785021023824
 20
235.429341873923
 30
0.0
 10
90.64333792487363
 20
235.3407916976058
 30
0.0
 10
90.94670784468755
 20
235.327198487582
 30
0.0
 10
91.08503256441271
 20
235.3210005198736
 30
0.0
  0
SPLINE
  5
CC
330
1F
100
AcDbEntity
  8
0
  6
Continuous
 62
     7
370
    15
100
AcDbSpline
210
0.0
220
0.0
230
1.0
 70
     8
 71
     3
 72
    11
 73
     7
 74
     0
 42
0.000000001
 43
0.00000001
 40
0.0
 40
0.0
 40
0.0
 40
0.0
 40
0.2486219881564705
 40
0.504153935796715
 40
0.7601547497902504
 40
0.9999999999999999
 40
0.9999999999999999
 40
0.9999999999999999
 40
0.9999999999999999
 10
91.9209700644127
 20
239.9967817698736
 30
0.0
 10
91.79453420111734
 20
240.0354406885911
 30
0.0
 10
91.53814843822138
 20
240.113832974686
 30
0.0
 10
91.15406261064061
 20
240.2395380488168
 30
0.0
 10
90.78056583146551
 20
240.3838934458076
 30
0.0
 10
90.54873415464301
 20
240.5100011005299
 30
0.0
 10
90.4365950644127
 20
240.5710005198735
 30
0.0
  0
SPLINE
  5
CD
330
1F
100
AcDbEntity
  8
0
  6
Continuous
 62
     7
370
    15
100
AcDbSpline
210
0.0
220
0.0
230
1.0
 70
     8
 71
     3
 72
    17
 73
    13
 74
     0
 42
0.000000001
 43
0.00000001
 40
0.0
 40
0.0
 40
0.0
 40
0.0
 40
0.0587314591379295
 40
0.1165556974260371
 40
0.1763134359639916
 40
0.2376179084476736
 40
0.365262111916573
 40
0.4962419546227132
 40
0.629434983733632
 40
0.7613316185937228
 40
0.8871278618029208
 40
1.0
 40
1.0
 40
1.0
 40
1.0
 10
90.43659506441271
 20
240.5710005198736
 30
0.0
 10
90.33964628520208
 20
240.6335619581189
 30
0.0
 10
90.14724628797124
 20
240.7577184523332
 30
0.0
 10
89.8901031528071
 20
240.990975893406
 30
0.0
 10
89.65820443535151
 20
241.2556786758225
 30
0.0
 10
89.39358705066253
 20
241.6667859592854
 30
0.0
 10
89.11228954680519
 20
242.2302718506223
 30
0.0
 10
88.87155596791843
 20
242.9624170143294
 30
0.0
 10
88.7068735015418
 20
243.7229031637094
 30
0.0
 10
88.61157856317796
 20
244.4842897731534
 30
0.0
 10
88.555221839578
 20
245.2094391680529
 30
0.0
 10
88.5489406114387
 20
245.6776819909649
 30
0.0
 10
88.54597006441267
 20
245.8991255198735
 30
0.0
  0
SPLINE
  5
CE
330
1F
100
AcDbEntity
  8
0
  6
Continuous
 62
     7
370
    15
100
AcDbSpline
210
0.0
220
0.0
230
1.0
 70
     8
 71
     3
 72
    21
 73
    17
 74
     0
 42
0.000000001
 43
0.00000001
 40
0.0
 40
0.0
 40
0.0
 40
0.0
 40
0.108450107925862
 40
0.2241300132065881
 40
0.2841954508562156
 40
0.3432786119334407
 40
0.4031697315700031
 40
0.4631337621618162
 40
0.5235953850801949
 40
0.5844890659255312
 40
0.6464371181759634
 40
0.7104320742719017
 40
0.7769217198823789
 40
0.846215535963712
 40
0.9201823115084861
 40
1.0
 40
1.0
 40
1.0
 40
1.0
 10
88.54597006441267
 20
245.8991255198735
 30
0.0
 10
88.55197035055562
 20
246.1518683167739
 30
0.0
 10
88.56437093030773
 20
246.6742029413357
 30
0.0
 10
88.63069338409991
 20
247.3342676162962
 30
0.0
 10
88.7214949475098
 20
247.8740895255224
 30
0.0
 10
88.81309127543045
 20
248.2817648341052
 30
0.0
 10
88.94567698812982
 20
248.6776625812755
 30
0.0
 10
89.09549686258478
 20
249.0703922104775
 30
0.0
 10
89.27999976872285
 20
249.4518593432373
 30
0.0
 10
89.51883803515743
 20
249.8073801307215
 30
0.0
 10
89.79365119682281
 20
250.1458255539471
 30
0.0
 10
90.11035364082849
 20
250.464656681867
 30
0.0
 10
90.47815444524345
 20
250.7529454777929
 30
0.0
 10
90.9066524401347
 20
250.9916540694617
 30
0.0
 10
91.39121579205158
 20
251.185060666413
 30
0.0
 10
91.73996247937629
 20
251.2694091887494
 30
0.0
 10
91.92097006441269
 20
251.3131880198735
 30
0.0
  0
SPLINE
  5
D1
330
1F
100
AcDbEntity
  8
0
  6
Continuous
 62
     7
370
    15
100
AcDbSpline
210
0.0
220
0.0
230
1.0
 70
     8
 71
     3
 72
    17
 73
    13
 74
     0
 42
0.000000001
 43
0.00000001
 40
0.0
 40
0.0
 40
0.0
 40
0.0
 40
0.1178693044637259
 40
0.2656365623625636
 40
0.4279807024073692
 40
0.5867162390489821
 40
0.7343621939382672
 40
0.862606935349431
 40
0.9158009126957265
 40
0.9569693433974503
 40
0.9850234349860988
 40
1.0
 40
1.0
 40
1.0
 40
1.0
 10
91.1670638144127
 20
256.0710005198735
 30
0.0
 10
91.03385607671775
 20
256.0637188733227
 30
0.0
 10
90.73365200168422
 20
256.0473085655935
 30
0.0
 10
90.2596804515585
 20
255.9439078138592
 30
0.0
 10
89.74454662470569
 20
255.8211177784547
 30
0.0
 10
89.23354786207572
 20
255.6807808198306
 30
0.0
 10
88.76127320615534
 20
255.5454143254766
 30
0.0
 10
88.40822690192775
 20
255.4282278906182
 30
0.0
 10
88.1682042824948
 20
255.352713569063
 30
0.0
 10
88.03664801023069
 20
255.3100030776164
 30
0.0
 10
87.9460869459278
 20
255.2804475111975
 30
0.0
 10
87.90137540222146
 20
255.2612691758373
 30
0.0
 10
87.88581381441269
 20
255.2545942698735
 30
0.0
  0
SPLINE
  5
D2
330
1F
100
AcDbEntity
  8
0
  6
Continuous
 62
     7
370
    15
100
AcDbSpline
210
0.0
220
0.0
230
1.0
 70
     8
 71
     3
 72
    23
 73
    19
 74
     0
 42
0.000000001
 43
0.00000001
 40
0.0
 40
0.0
 40
0.0
 40
0.0
 40
0.0808345192157431
 40
0.1568411673740523
 40
0.2292384350988189
 40
0.2982107488158336
 40
0.3651514439258984
 40
0.4298234402764393
 40
0.4931570716869677
 40
0.5556427685495084
 40
0.616803782894509
 40
0.6766634961326107
 40
0.7350813163549668
 40
0.7928954711566859
 40
0.8489317075068077
 40
0.9017627122835624
 40
0.9524174276640253
 40
1.0
 40
1.0
 40
1.0
 40
1.0
 10
87.88581381441269
 20
255.2545942698735
 30
0.0
 10
87.59530224860079
 20
255.1287198587619
 30
0.0
 10
87.03163002589608
 20
254.8844889315193
 30
0.0
 10
86.25318285487134
 20
254.4344869474468
 30
0.0
 10
85.5606335723151
 20
253.9371256256191
 30
0.0
 10
84.96367790295021
 20
253.3788211190283
 30
0.0
 10
84.44610586363831
 20
252.7873137955941
 30
0.0
 10
83.98924382936478
 20
252.1752280337582
 30
0.0
 10
83.59576761996699
 20
251.5405442961925
 30
0.0
 10
83.27140669469638
 20
250.8836518352436
 30
0.0
 10
82.99566937282478
 20
250.219728504429
 30
0.0
 10
82.77996008901098
 20
249.550814219384
 30
0.0
 10
82.60329273872343
 20
248.8840163871326
 30
0.0
 10
82.48731112513413
 20
248.219162677076
 30
0.0
 10
82.40443448158871
 20
247.5720360011724
 30
0.0
 10
82.33896800833182
 20
246.9509897102032
 30
0.0
 10
82.3036893071338
 20
246.3604869718598
 30
0.0
 10
82.29848893547059
 20
245.9759878986617
 30
0.0
 10
82.2959700644127
 20
245.7897505198735
 30
0.0
  0
SPLINE
  5
D3
330
1F
100
AcDbEntity
  8
0
  6
Continuous
 62
     7
370
    15
100
AcDbSpline
210
0.0
220
0.0
230
1.0
 70
     8
 71
     3
 72
    25
 73
    21
 74
     0
 42
0.000000001
 43
0.00000001
 40
0.0
 40
0.0
 40
0.0
 40
0.0
 40
0.110735253826479
 40
0.2260993490098423
 40
0.2849537146024252
 40
0.3429661117676418
 40
0.4010933888707749
 40
0.4590520974731536
 40
0.5179546165168899
 40
0.5773374586342863
 40
0.6385785357795195
 40
0.7017745864880963
 40
0.734616619038305
 40
0.7679609321086257
 40
0.8029216135278263
 40
0.8390690635796254
 40
0.876801214799714
 40
0.9162505106973562
 40
0.9570738103393703
 40
1.0
 40
1.0
 40
1.0
 40
1.0
 10
182.4733138144127
 20
256.0710005198735
 30
0.0
 10
182.0408420315578
 20
256.0650177180145
 30
0.0
 10
181.1578207245235
 20
256.0528020273576
 30
0.0
 10
180.0477852859489
 20
255.9675180855549
 30
0.0
 10
179.1465683724663
 20
255.8602652551962
 30
0.0
 10
178.4786162585455
 20
255.7113591433634
 30
0.0
 10
177.8265289032528
 20
255.5172903492553
 30
0.0
 10
177.1884528397435
 20
255.2705133213069
 30
0.0
 10
176.5707877039505
 20
254.9641018085418
 30
0.0
 10
175.980249257722
 20
254.5838993504549
 30
0.0
 10
175.4163536800266
 20
254.1378765679552
 30
0.0
 10
174.9755928454678
 20
253.7086630870995
 30
0.0
 10
174.6396634367441
 20
253.3308396515487
 30
0.0
 10
174.4032446423252
 20
253.0137868608758
 30
0.0
 10
174.183427131915
 20
252.6700709928937
 30
0.0
 10
173.9685145704448
 20
252.3029677141242
 30
0.0
 10
173.7804714234478
 20
251.9019041000772
 30
0.0
 10
173.6006191664599
 20
251.4776210478432
 30
0.0
 10
173.43453931393
 20
251.025737953008
 30
0.0
 10
173.3413770601947
 20
250.712183209668
 30
0.0
 10
173.2936263144128
 20
250.5514692698735
 30
0.0
  0
SPLINE
  5
D4
330
1F
100
AcDbEntity
  8
0
  6
Continuous
 62
     7
370
    15
100
AcDbSpline
210
0.0
220
0.0
230
1.0
 70
     8
 71
     3
 72
    15
 73
    11
 74
     0
 42
0.000000001
 43
0.00000001
 40
0.0
 40
0.0
 40
0.0
 40
0.0
 40
0.1231426611433093
 40
0.2536930565895051
 40
0.3876482058476835
 40
0.5205910850638837
 40
0.6509384313235841
 40
0.7765435239314907
 40
0.8937347692943841
 40
1.0
 40
1.0
 40
1.0
 40
1.0
 10
154.0412825644128
 20
243.8210005198736
 30
0.0
 10
153.8975493473173
 20
243.6859192313444
 30
0.0
 10
153.6014365392956
 20
243.4076307433675
 30
0.0
 10
153.2094431335072
 20
242.9252088257613
 30
0.0
 10
152.8333089772192
 20
242.412229679403
 30
0.0
 10
152.4916757523645
 20
241.8759659527292
 30
0.0
 10
152.1633515564872
 20
241.3470329881663
 30
0.0
 10
151.8873068639475
 20
240.81727727079
 30
0.0
 10
151.6293132631748
 20
240.3219446836603
 30
0.0
 10
151.4717031560137
 20
240.0009798294966
 30
0.0
 10
151.3967513144127
 20
239.8483442698736
 30
0.0
  0
SPLINE
  5
D5
330
1F
100
AcDbEntity
  8
0
  6
Continuous
 62
     7
370
    15
100
AcDbSpline
210
0.0
220
0.0
230
1.0
 70
     8
 71
     3
 72
    11
 73
     7
 74
     0
 42
0.000000001
 43
0.00000001
 40
0.0
 40
0.0
 40
0.0
 40
0.0
 40
0.2523840388422161
 40
0.5017957281338384
 40
0.7505790822959261
 40
1.0
 40
1.0
 40
1.0
 40
1.0
 10
155.6623763144127
 20
244.6335005198735
 30
0.0
 10
155.5254058137717
 20
244.5645482816773
 30
0.0
 10
155.2530779264088
 20
244.4274558620025
 30
0.0
 10
154.8271021556145
 20
244.2675573526235
 30
0.0
 10
154.4009714278108
 20
244.1016411284075
 30
0.0
 10
154.161281097967
 20
243.9146271647513
 30
0.0
 10
154.0412825644127
 20
243.8210005198735
 30
0.0
  0
SPLINE
  5
D6
330
1F
100
AcDbEntity
  8
0
  6
Continuous
 62
     7
370
    15
100
AcDbSpline
210
0.0
220
0.0
230
1.0
 70
     8
 71
     3
 72
    23
 73
    19
 74
     0
 42
0.000000001
 43
0.00000001
 40
0.0
 40
0.0
 40
0.0
 40
0.0
 40
0.0582088367848217
 40
0.1151810870182334
 40
0.1716124000196932
 40
0.2273543633691011
 40
0.2828554665605451
 40
0.3377925952144399
 40
0.3942051626927726
 40
0.4510845149112873
 40
0.509246898530511
 40
0.5692393591500684
 40
0.6312526427752391
 40
0.696198337310407
 40
0.7649944531150427
 40
0.8379474449060756
 40
0.9161498626184663
 40
1.0
 40
1.0
 40
1.0
 40
1.0
 10
150.9084700644127
 20
250.2545942698735
 30
0.0
 10
150.9116520711601
 20
250.0982387172049
 30
0.0
 10
150.9179484862116
 20
249.7888492239177
 30
0.0
 10
150.9627933287495
 20
249.3297261303408
 30
0.0
 10
151.0313951864517
 20
248.880359033661
 30
0.0
 10
151.1330754203942
 20
248.4412001231497
 30
0.0
 10
151.2678653964065
 20
248.0150277228977
 30
0.0
 10
151.4470754317115
 20
247.6034760293323
 30
0.0
 10
151.6646837333921
 20
247.2068201153187
 30
0.0
 10
151.9237509470695
 20
246.8251727303063
 30
0.0
 10
152.2267478245923
 20
246.4647508791609
 30
0.0
 10
152.5713717733688
 20
246.1241202400369
 30
0.0
 10
152.9608241739665
 20
245.8058990467507
 30
0.0
 10
153.3979295731132
 20
245.5127852284147
 30
0.0
 10
153.8824872433052
 20
245.2398276282759
 30
0.0
 10
154.4276205819055
 20
245.0104764424704
 30
0.0
 10
155.0212258043808
 20
244.7939215773608
 30
0.0
 10
155.4437509801099
 20
244.6882023516176
 30
0.0
 10
155.6623763144127
 20
244.6335005198736
 30
0.0
  0
SPLINE
  5
D7
330
1F
100
AcDbEntity
  8
0
  6
Continuous
 62
     7
370
    15
100
AcDbSpline
210
0.0
220
0.0
230
1.0
 70
     8
 71
     3
 72
    27
 73
    23
 74
     0
 42
0.000000001
 43
0.00000001
 40
0.0
 40
0.0
 40
0.0
 40
0.0
 40
0.0542470131053976
 40
0.1105064086156072
 40
0.1688505828847049
 40
0.2294062393218575
 40
0.2905469767339397
 40
0.3506687590106273
 40
0.4097588851624141
 40
0.4691234495780713
 40
0.5281441574886644
 40
0.5870965854184778
 40
0.6472291330977042
 40
0.7089097731463947
 40
0.7408515611735397
 40
0.7734331624239305
 40
0.8073917943052972
 40
0.8424529064275453
 40
0.8792730029617762
 40
0.9175695093182462
 40
0.9578860689601775
 40
1.0
 40
1.0
 40
1.0
 40
1.0
 10
158.0490950644127
 20
255.8210005198736
 30
0.0
 10
157.8628248473202
 20
255.8190009338423
 30
0.0
 10
157.4833744122714
 20
255.8149275838386
 30
0.0
 10
156.9049604776525
 20
255.7724347735882
 30
0.0
 10
156.3066748803125
 20
255.7109756633066
 30
0.0
 10
155.6948070932035
 20
255.6224458264295
 30
0.0
 10
155.0813456120823
 20
255.5037286900413
 30
0.0
 10
154.4870889921608
 20
255.3263651679559
 30
0.0
 10
153.9157959295461
 20
255.1021224669498
 30
0.0
 10
153.3691882842188
 20
254.8309203013584
 30
0.0
 10
152.85389043538
 20
254.5039643910866
 30
0.0
 10
152.384031103765
 20
254.1094652472388
 30
0.0
 10
151.9666597963968
 20
253.6481959602993
 30
0.0
 10
151.6559315189588
 20
253.2199712028567
 30
0.0
 10
151.4377072404406
 20
252.8450282564513
 30
0.0
 10
151.2973924443144
 20
252.5369307028158
 30
0.0
 10
151.1758587536184
 20
252.209596971554
 30
0.0
 10
151.0792181913423
 20
251.8589579238505
 30
0.0
 10
151.000695562537
 20
251.4886905221404
 30
0.0
 10
150.9464317340671
 20
251.0957939471944
 30
0.0
 10
150.9159358307735
 20
250.6821673267651
 30
0.0
 10
150.9109945674401
 20
250.3991754721748
 30
0.0
 10
150.9084700644127
 20
250.2545942698735
 30
0.0
  0
SPLINE
  5
DE
330
1F
100
AcDbEntity
  8
0
  6
Continuous
 62
     7
370
    15
100
AcDbSpline
210
0.0
220
0.0
230
1.0
 70
     8
 71
     3
 72
    17
 73
    13
 74
     0
 42
0.000000001
 43
0.00000001
 40
0.0
 40
0.0
 40
0.0
 40
0.0
 40
0.0756286262878435
 40
0.1463311073561104
 40
0.2125228338609259
 40
0.2764626151174596
 40
0.3999971848417632
 40
0.5184774442326244
 40
0.6372389398865809
 40
0.7605827388849267
 40
0.883059051906785
 40
0.9999999999999999
 40
0.9999999999999999
 40
0.9999999999999999
 40
0.9999999999999999
 10
157.1584700644127
 20
249.6217817698735
 30
0.0
 10
157.1620422145778
 20
249.7078299703439
 30
0.0
 10
157.1689538393811
 20
249.8743215368165
 30
0.0
 10
157.2056803122807
 20
250.1143185760192
 30
0.0
 10
157.2772235605798
 20
250.3326626677301
 30
0.0
 10
157.4086056345236
 20
250.5904256839936
 30
0.0
 10
157.6145863177597
 20
250.8755540920372
 30
0.0
 10
157.9326386367861
 20
251.1408909159116
 30
0.0
 10
158.2951884068471
 20
251.3385053670985
 30
0.0
 10
158.690591617896
 20
251.4689233974181
 30
0.0
 10
159.0962934620887
 20
251.5540952985022
 30
0.0
 10
159.3690129696821
 20
251.5654529765202
 30
0.0
 10
159.5022200644127
 20
251.5710005198735
 30
0.0
  0
SPLINE
  5
DF
330
1F
100
AcDbEntity
  8
0
  6
Continuous
 62
     7
370
    15
100
AcDbSpline
210
0.0
220
0.0
230
1.0
 70
     8
 71
     3
 72
    21
 73
    17
 74
     0
 42
0.000000001
 43
0.00000001
 40
0.0
 40
0.0
 40
0.0
 40
0.0
 40
0.0416965822259163
 40
0.0900308206192908
 40
0.1457944968273929
 40
0.2075107773453065
 40
0.3377300724228469
 40
0.4664463598492704
 40
0.5297675358733186
 40
0.5920544500206146
 40
0.6530136680693641
 40
0.7151717570236316
 40
0.777843557928257
 40
0.8436814413126794
 40
0.9172556899778734
 40
1.0
 40
1.0
 40
1.0
 40
1.0
 10
161.2600325644127
 20
247.5397505198735
 30
0.0
 10
161.1871389130781
 20
247.5442971806591
 30
0.0
 10
161.0297477098367
 20
247.5541142826792
 30
0.0
 10
160.7743495887653
 20
247.5555071578299
 30
0.0
 10
160.4839708175039
 20
247.5566431151493
 30
0.0
 10
160.0503082336938
 20
247.5468594423432
 30
0.0
 10
159.4880837850561
 20
247.564960586909
 30
0.0
 10
158.9286877404991
 20
247.6509010199367
 30
0.0
 10
158.4974014087529
 20
247.7657168171989
 30
0.0
 10
158.1966019136453
 20
247.8963599811371
 30
0.0
 10
157.9157667823627
 20
248.0600082648621
 30
0.0
 10
157.6503902834253
 20
248.2500827856565
 30
0.0
 10
157.4232986986023
 20
248.5002417227233
 30
0.0
 10
157.2662530777669
 20
248.8216225324935
 30
0.0
 10
157.1736679520366
 20
249.202568869892
 30
0.0
 10
157.1637303490066
 20
249.4766840290633
 30
0.0
 10
157.1584700644127
 20
249.6217817698735
 30
0.0
  0
SPLINE
  5
E1
330
1F
100
AcDbEntity
  8
0
  6
Continuous
 62
     7
370
    15
100
AcDbSpline
210
0.0
220
0.0
230
1.0
 70
     8
 71
     3
 72
    11
 73
     7
 74
     0
 42
0.000000001
 43
0.00000001
 40
0.0
 40
0.0
 40
0.0
 40
0.0
 40
0.2296035354762855
 40
0.4773273055000942
 40
0.7381873663951679
 40
1.0
 40
1.0
 40
1.0
 40
1.0
 10
160.3420638144127
 20
242.9733442698735
 30
0.0
 10
160.3947857321963
 20
243.0443162696999
 30
0.0
 10
160.5043903639551
 20
243.1918613559408
 30
0.0
 10
160.7394157008903
 20
243.3545986158858
 30
0.0
 10
160.9933900046941
 20
243.5029942295792
 30
0.0
 10
161.1710437863055
 20
243.5951507712417
 30
0.0
 10
161.2600325644127
 20
243.6413130198735
 30
0.0
  0
SPLINE
  5
E2
330
1F
100
AcDbEntity
  8
0
  6
Continuous
 62
     7
370
    15
100
AcDbSpline
210
0.0
220
0.0
230
1.0
 70
     8
 71
     3
 72
    17
 73
    13
 74
     0
 42
0.000000001
 43
0.00000001
 40
0.0
 40
0.0
 40
0.0
 40
0.0
 40
0.1237226660853878
 40
0.2578892106582819
 40
0.3963084169595492
 40
0.5343107154967887
 40
0.6674141270400912
 40
0.7933603592476998
 40
0.8522031630253163
 40
0.9059797790243085
 40
0.9555135680984577
 40
1.0
 40
1.0
 40
1.0
 40
1.0
 10
156.3147200644127
 20
235.8210005198735
 30
0.0
 10
156.4773027346223
 20
236.1179732524818
 30
0.0
 10
156.8161922672656
 20
236.7369872619807
 30
0.0
 10
157.3405373699821
 20
237.6862926328928
 30
0.0
 10
157.8796751563967
 20
238.6720620792851
 30
0.0
 10
158.4227563788348
 20
239.6523249401767
 30
0.0
 10
158.9422226483445
 20
240.6066843970837
 30
0.0
 10
159.375594730817
 20
241.3609872013275
 30
0.0
 10
159.7007933470753
 20
241.9270821874241
 30
0.0
 10
159.9300167114427
 20
242.3070273201004
 30
0.0
 10
160.137886181663
 20
242.6539961978359
 30
0.0
 10
160.2764847670063
 20
242.8707740614071
 30
0.0
 10
160.3420638144128
 20
242.9733442698736
 30
0.0
  0
SPLINE
  5
E4
330
1F
100
AcDbEntity
  8
0
  6
Continuous
 62
     7
370
    15
100
AcDbSpline
210
0.0
220
0.0
230
1.0
 70
     8
 71
     3
 72
    13
 73
     9
 74
     0
 42
0.000000001
 43
0.00000001
 40
0.0
 40
0.0
 40
0.0
 40
0.0
 40
0.110202687713356
 40
0.2265779221015764
 40
0.3498936642720206
 40
0.4801505380165911
 40
0.7429904992411503
 40
1.0
 40
1.0
 40
1.0
 40
1.0
 10
151.3967513144127
 20
239.8483442698735
 30
0.0
 10
151.3214505159385
 20
239.6997940615203
 30
0.0
 10
151.1666312569451
 20
239.3943732207512
 30
0.0
 10
150.923242077407
 20
238.9249333581809
 30
0.0
 10
150.6654535927331
 20
238.4288270118321
 30
0.0
 10
150.304730750266
 20
237.7367639329487
 30
0.0
 10
149.8417197605457
 20
236.8701603859926
 30
0.0
 10
149.4890682219278
 20
236.1680957666808
 30
0.0
 10
149.3147200644127
 20
235.8210005198735
 30
0.0
  0
CIRCLE
  5
102
330
1F
100
AcDbEntity
  8
0
  6
Continuous
 62
     7
370
    15
100
AcDbCircle
 10
7.5
 20
83.0
 30
0.0
 40
2.249999999999958
  0
CIRCLE
  5
103
330
1F
100
AcDbEntity
  8
0
  6
Continuous
 62
     7
370
    15
100
AcDbCircle
 10
133.5
 20
290.0
 30
0.0
 40
2.249999999999915
  0
CIRCLE
  5
104
330
1F
100
AcDbEntity
  8
0
  6
Continuous
 62
     7
370
    15
100
AcDbCircle
 10
153.5
 20
290.0
 30
0.0
 40
2.249999999999943
  0
CIRCLE
  5
105
330
1F
100
AcDbEntity
  8
0
  6
Continuous
 62
     7
370
    15
100
AcDbCircle
 10
63.5
 20
290.0
 30
0.0
 40
2.249999999999936
  0
CIRCLE
  5
106
330
1F
100
AcDbEntity
  8
0
  6
Continuous
 62
     7
370
    15
100
AcDbCircle
 10
43.5
 20
290.0
 30
0.0
 40
2.249999999999936
  0
CIRCLE
  5
107
330
1F
100
AcDbEntity
  8
0
  6
Continuous
 62
     7
370
    15
100
AcDbCircle
 10
223.5
 20
290.0
 30
0.0
 40
2.249999999999943
  0
CIRCLE
  5
108
330
1F
100
AcDbEntity
  8
0
  6
Continuous
 62
     7
370
    15
100
AcDbCircle
 10
243.5
 20
290.0
 30
0.0
 40
2.249999999999972
  0
CIRCLE
  5
109
330
1F
100
AcDbEntity
  8
0
  6
Continuous
 62
     7
370
    15
100
AcDbCircle
 10
279.5
 20
278.0
 30
0.0
 40
2.249999999999943
  0
CIRCLE
  5
10A
330
1F
100
AcDbEntity
  8
0
  6
Continuous
 62
     7
370
    15
100
AcDbCircle
 10
279.5
 20
53.0
 30
0.0
 40
2.249999999999943
  0
CIRCLE
  5
10B
330
1F
100
AcDbEntity
  8
0
  6
Continuous
 62
     7
370
    15
100
AcDbCircle
 10
279.5
 20
83.0
 30
0.0
 40
2.249999999999943
  0
CIRCLE
  5
10C
330
1F
100
AcDbEntity
  8
0
  6
Continuous
 62
     7
370
    15
100
AcDbCircle
 10
279.5
 20
248.0
 30
0.0
 40
2.25
  0
CIRCLE
  5
10D
330
1F
100
AcDbEntity
  8
0
  6
Continuous
 62
     7
370
    15
100
AcDbCircle
 10
7.5
 20
278.0
 30
0.0
 40
2.250000000000017
  0
CIRCLE
  5
10E
330
1F
100
AcDbEntity
  8
0
  6
Continuous
 62
     7
370
    15
100
AcDbCircle
 10
7.5
 20
53.0
 30
0.0
 40
2.249999999999951
  0
CIRCLE
  5
10F
330
1F
100
AcDbEntity
  8
0
  6
Continuous
 62
     7
370
    15
100
AcDbCircle
 10
7.5
 20
248.0
 30
0.0
 40
2.24999999999998
  0
CIRCLE
  5
110
330
1F
100
AcDbEntity
  8
0
  6
Continuous
 62
     7
370
    15
100
AcDbCircle
 10
83.5
 20
11.5
 30
0.0
 40
1.750000000000028
  0
CIRCLE
  5
111
330
1F
100
AcDbEntity
  8
0
  6
Continuous
 62
     7
370
    15
100
AcDbCircle
 10
143.5
 20
11.5
 30
0.0
 40
1.75
  0
CIRCLE
  5
112
330
1F
100
AcDbEntity
  8
0
  6
Continuous
 62
     7
370
    15
100
AcDbCircle
 10
203.5
 20
11.5
 30
0.0
 40
1.749999999999972
  0
CIRCLE
  5
113
330
1F
100
AcDbEntity
  8
0
  6
Continuous
 62
     7
370
    15
100
AcDbCircle
 10
143.5
 20
105.0
 30
0.0
 40
2.0
  0
LINE
  5
134
330
1F
100
AcDbEntity
  8
0
  6
Continuous
 62
     7
370
    15
100
AcDbLine
 10
114.7514388144
 20
235.8210005199
 30
0.0
 11
118.4740950644
 21
235.8210005199
 31
0.0
  0
LINE
  5
135
330
1F
100
AcDbEntity
  8
0
  6
Continuous
 62
     7
370
    15
100
AcDbLine
 10
118.4740950644
 20
235.8210005199
 30
0.0
 11
118.4740950644
 21
240.0710005199
 31
0.0
  0
LINE
  5
136
330
1F
100
AcDbEntity
  8
0
  6
Continuous
 62
     7
370
    15
100
AcDbLine
 10
118.4740950644
 20
240.0710005199
 30
0.0
 11
115.8295638144
 21
240.0710005199
 31
0.0
  0
LINE
  5
137
330
1F
100
AcDbEntity
  8
0
  6
Continuous
 62
     7
370
    15
100
AcDbLine
 10
116.5014388144
 20
244.3210005199
 30
0.0
 11
118.4155013144
 21
244.3210005199
 31
0.0
  0
LINE
  5
138
330
1F
100
AcDbEntity
  8
0
  6
Continuous
 62
     7
370
    15
100
AcDbLine
 10
118.4155013144
 20
244.3210005199
 30
0.0
 11
118.4155013144
 21
248.0710005199
 31
0.0
  0
LINE
  5
139
330
1F
100
AcDbEntity
  8
0
  6
Continuous
 62
     7
370
    15
100
AcDbLine
 10
118.4155013144
 20
248.0710005199
 30
0.0
 11
116.4467513144
 21
248.0710005199
 31
0.0
  0
LINE
  5
13A
330
1F
100
AcDbEntity
  8
0
  6
Continuous
 62
     7
370
    15
100
AcDbLine
 10
116.4037825644
 20
251.5710005199
 30
0.0
 11
119.8334700644
 21
251.5710005199
 31
0.0
  0
LINE
  5
13B
330
1F
100
AcDbEntity
  8
0
  6
Continuous
 62
     7
370
    15
100
AcDbLine
 10
119.8334700644
 20
251.5710005199
 30
0.0
 11
119.8334700644
 21
235.8210005199
 31
0.0
  0
LINE
  5
13C
330
1F
100
AcDbEntity
  8
0
  6
Continuous
 62
     7
370
    15
100
AcDbLine
 10
119.8334700644
 20
235.8210005199
 30
0.0
 11
126.0834700644
 21
235.8210005199
 31
0.0
  0
LINE
  5
13D
330
1F
100
AcDbEntity
  8
0
  6
Continuous
 62
     7
370
    15
100
AcDbLine
 10
126.0834700644
 20
235.8210005199
 30
0.0
 11
126.0834700644
 21
250.0553755199
 31
0.0
  0
LINE
  5
13E
330
1F
100
AcDbEntity
  8
0
  6
Continuous
 62
     7
370
    15
100
AcDbLine
 10
126.0834700644
 20
250.0553755199
 30
0.0
 11
120.2397200644
 21
255.8210005199
 31
0.0
  0
LINE
  5
13F
330
1F
100
AcDbEntity
  8
0
  6
Continuous
 62
     7
370
    15
100
AcDbLine
 10
120.2397200644
 20
255.8210005199
 30
0.0
 11
113.6303450644
 21
255.8210005199
 31
0.0
  0
LINE
  5
140
330
1F
100
AcDbEntity
  8
0
  6
Continuous
 62
     7
370
    15
100
AcDbLine
 10
93.3662825644
 20
239.9967817699
 30
0.0
 11
93.3662825644
 21
235.3210005199
 31
0.0
  0
LINE
  5
141
330
1F
100
AcDbEntity
  8
0
  6
Continuous
 62
     7
370
    15
100
AcDbLine
 10
93.3662825644
 20
235.3210005199
 30
0.0
 11
93.9873763144
 21
235.3210005199
 31
0.0
  0
LINE
  5
142
330
1F
100
AcDbEntity
  8
0
  6
Continuous
 62
     7
370
    15
100
AcDbLine
 10
94.2569075644
 20
256.0710005199
 30
0.0
 11
93.3662825644
 21
256.0710005199
 31
0.0
  0
LINE
  5
143
330
1F
100
AcDbEntity
  8
0
  6
Continuous
 62
     7
370
    15
100
AcDbLine
 10
93.3662825644
 20
256.0710005199
 30
0.0
 11
93.3662825644
 21
251.3952192699
 31
0.0
  0
LINE
  5
144
330
1F
100
AcDbEntity
  8
0
  6
Continuous
 62
     7
370
    15
100
AcDbLine
 10
67.2584700644
 20
235.8210005199
 30
0.0
 11
73.5084700644
 21
235.8210005199
 31
0.0
  0
LINE
  5
145
330
1F
100
AcDbEntity
  8
0
  6
Continuous
 62
     7
370
    15
100
AcDbLine
 10
73.5084700644
 20
235.8210005199
 30
0.0
 11
73.5084700644
 21
250.8210005199
 31
0.0
  0
LINE
  5
146
330
1F
100
AcDbEntity
  8
0
  6
Continuous
 62
     7
370
    15
100
AcDbLine
 10
73.5084700644
 20
250.8210005199
 30
0.0
 11
78.2311263144
 21
250.9030317699
 31
0.0
  0
LINE
  5
147
330
1F
100
AcDbEntity
  8
0
  6
Continuous
 62
     7
370
    15
100
AcDbLine
 10
78.2311263144
 20
250.9030317699
 30
0.0
 11
73.2037825644
 21
255.8210005199
 31
0.0
  0
LINE
  5
148
330
1F
100
AcDbEntity
  8
0
  6
Continuous
 62
     7
370
    15
100
AcDbLine
 10
73.2037825644
 20
255.8210005199
 30
0.0
 11
67.2584700644
 21
255.8210005199
 31
0.0
  0
LINE
  5
149
330
1F
100
AcDbEntity
  8
0
  6
Continuous
 62
     7
370
    15
100
AcDbLine
 10
67.2584700644
 20
255.8210005199
 30
0.0
 11
67.2584700644
 21
235.8210005199
 31
0.0
  0
LINE
  5
14A
330
1F
100
AcDbEntity
  8
0
  6
Continuous
 62
     7
370
    15
100
AcDbLine
 10
130.8397200644
 20
244.3210005199
 30
0.0
 11
138.9412825644
 21
244.3210005199
 31
0.0
  0
LINE
  5
14B
330
1F
100
AcDbEntity
  8
0
  6
Continuous
 62
     7
370
    15
100
AcDbLine
 10
138.9412825644
 20
244.3210005199
 30
0.0
 11
138.9412825644
 21
248.5710005199
 31
0.0
  0
LINE
  5
14C
330
1F
100
AcDbEntity
  8
0
  6
Continuous
 62
     7
370
    15
100
AcDbLine
 10
138.9412825644
 20
248.5710005199
 30
0.0
 11
130.8397200644
 21
248.5710005199
 31
0.0
  0
LINE
  5
14D
330
1F
100
AcDbEntity
  8
0
  6
Continuous
 62
     7
370
    15
100
AcDbLine
 10
130.8397200644
 20
248.5710005199
 30
0.0
 11
130.8397200644
 21
244.3210005199
 31
0.0
  0
LINE
  5
14E
330
1F
100
AcDbEntity
  8
0
  6
Continuous
 62
     7
370
    15
100
AcDbLine
 10
129.9725325644
 20
251.5710005199
 30
0.0
 11
140.3709700644
 21
251.5710005199
 31
0.0
  0
LINE
  5
14F
330
1F
100
AcDbEntity
  8
0
  6
Continuous
 62
     7
370
    15
100
AcDbLine
 10
140.3709700644
 20
251.5710005199
 30
0.0
 11
140.3709700644
 21
235.8210005199
 31
0.0
  0
LINE
  5
150
330
1F
100
AcDbEntity
  8
0
  6
Continuous
 62
     7
370
    15
100
AcDbLine
 10
140.3709700644
 20
235.8210005199
 30
0.0
 11
146.6209700644
 21
235.8210005199
 31
0.0
  0
LINE
  5
151
330
1F
100
AcDbEntity
  8
0
  6
Continuous
 62
     7
370
    15
100
AcDbLine
 10
146.6209700644
 20
235.8210005199
 30
0.0
 11
146.6209700644
 21
249.8678755199
 31
0.0
  0
LINE
  5
152
330
1F
100
AcDbEntity
  8
0
  6
Continuous
 62
     7
370
    15
100
AcDbLine
 10
146.6209700644
 20
249.8678755199
 30
0.0
 11
140.5350325644
 21
255.8210005199
 31
0.0
  0
LINE
  5
153
330
1F
100
AcDbEntity
  8
0
  6
Continuous
 62
     7
370
    15
100
AcDbLine
 10
140.5350325644
 20
255.8210005199
 30
0.0
 11
129.9725325644
 21
255.8210005199
 31
0.0
  0
LINE
  5
154
330
1F
100
AcDbEntity
  8
0
  6
Continuous
 62
     7
370
    15
100
AcDbLine
 10
129.9725325644
 20
255.8210005199
 30
0.0
 11
129.9725325644
 21
251.5710005199
 31
0.0
  0
LINE
  5
155
330
1F
100
AcDbEntity
  8
0
  6
Continuous
 62
     7
370
    15
100
AcDbLine
 10
183.5787825644
 20
239.9967817699
 30
0.0
 11
183.5787825644
 21
235.5710005199
 31
0.0
  0
LINE
  5
156
330
1F
100
AcDbEntity
  8
0
  6
Continuous
 62
     7
370
    15
100
AcDbLine
 10
183.5787825644
 20
235.5710005199
 30
0.0
 11
184.1217513144
 21
235.5710005199
 31
0.0
  0
LINE
  5
157
330
1F
100
AcDbEntity
  8
0
  6
Continuous
 62
     7
370
    15
100
AcDbLine
 10
183.9303450644
 20
256.0710005199
 30
0.0
 11
182.4733138144
 21
256.0710005199
 31
0.0
  0
LINE
  5
158
330
1F
100
AcDbEntity
  8
0
  6
Continuous
 62
     7
370
    15
100
AcDbLine
 10
180.8834700644
 20
235.5710005199
 30
0.0
 11
182.3405013144
 21
235.5710005199
 31
0.0
  0
LINE
  5
159
330
1F
100
AcDbEntity
  8
0
  6
Continuous
 62
     7
370
    15
100
AcDbLine
 10
182.3405013144
 20
235.5710005199
 30
0.0
 11
182.3405013144
 21
239.9264692699
 31
0.0
  0
LINE
  5
15A
330
1F
100
AcDbEntity
  8
0
  6
Continuous
 62
     7
370
    15
100
AcDbLine
 10
178.6959700644
 20
241.3249067699
 30
0.0
 11
178.6959700644
 21
243.0710005199
 31
0.0
  0
LINE
  5
15B
330
1F
100
AcDbEntity
  8
0
  6
Continuous
 62
     7
370
    15
100
AcDbLine
 10
178.6959700644
 20
243.0710005199
 30
0.0
 11
182.8795638144
 21
243.0710005199
 31
0.0
  0
LINE
  5
15C
330
1F
100
AcDbEntity
  8
0
  6
Continuous
 62
     7
370
    15
100
AcDbLine
 10
182.8795638144
 20
243.0710005199
 30
0.0
 11
182.8795638144
 21
247.3210005199
 31
0.0
  0
LINE
  5
15D
330
1F
100
AcDbEntity
  8
0
  6
Continuous
 62
     7
370
    15
100
AcDbLine
 10
182.8795638144
 20
247.3210005199
 30
0.0
 11
173.1959700644
 21
247.3210005199
 31
0.0
  0
LINE
  5
15E
330
1F
100
AcDbEntity
  8
0
  6
Continuous
 62
     7
370
    15
100
AcDbLine
 10
173.1959700644
 20
247.3210005199
 30
0.0
 11
173.1959700644
 21
238.6842817699
 31
0.0
  0
LINE
  5
15F
330
1F
100
AcDbEntity
  8
0
  6
Continuous
 62
     7
370
    15
100
AcDbLine
 10
130.1092513144
 20
235.8210005199
 30
0.0
 11
138.9412825644
 21
235.8210005199
 31
0.0
  0
LINE
  5
160
330
1F
100
AcDbEntity
  8
0
  6
Continuous
 62
     7
370
    15
100
AcDbLine
 10
138.9412825644
 20
235.8210005199
 30
0.0
 11
138.9412825644
 21
240.0710005199
 31
0.0
  0
LINE
  5
161
330
1F
100
AcDbEntity
  8
0
  6
Continuous
 62
     7
370
    15
100
AcDbLine
 10
138.9412825644
 20
240.0710005199
 30
0.0
 11
130.1092513144
 21
240.0710005199
 31
0.0
  0
LINE
  5
162
330
1F
100
AcDbEntity
  8
0
  6
Continuous
 62
     7
370
    15
100
AcDbLine
 10
130.1092513144
 20
240.0710005199
 30
0.0
 11
130.1092513144
 21
235.8210005199
 31
0.0
  0
LINE
  5
163
330
1F
100
AcDbEntity
  8
0
  6
Continuous
 62
     7
370
    15
100
AcDbLine
 10
201.4030723498
 20
244.467470335
 30
0.0
 11
209.4030723498
 21
244.467470335
 31
0.0
  0
LINE
  5
164
330
1F
100
AcDbEntity
  8
0
  6
Continuous
 62
     7
370
    15
100
AcDbLine
 10
209.4030723498
 20
244.467470335
 30
0.0
 11
209.4030723498
 21
248.967470335
 31
0.0
  0
LINE
  5
165
330
1F
100
AcDbEntity
  8
0
  6
Continuous
 62
     7
370
    15
100
AcDbLine
 10
209.4030723498
 20
248.967470335
 30
0.0
 11
201.4030723498
 21
248.967470335
 31
0.0
  0
LINE
  5
166
330
1F
100
AcDbEntity
  8
0
  6
Continuous
 62
     7
370
    15
100
AcDbLine
 10
201.4030723498
 20
248.967470335
 30
0.0
 11
201.4030723498
 21
244.467470335
 31
0.0
  0
LINE
  5
167
330
1F
100
AcDbEntity
  8
0
  6
Continuous
 62
     7
370
    15
100
AcDbLine
 10
61.0084700644
 20
250.8210005199
 30
0.0
 11
65.7584700644
 21
250.8210005199
 31
0.0
  0
LINE
  5
168
330
1F
100
AcDbEntity
  8
0
  6
Continuous
 62
     7
370
    15
100
AcDbLine
 10
65.7584700644
 20
250.8210005199
 30
0.0
 11
65.7584700644
 21
255.8210005199
 31
0.0
  0
LINE
  5
169
330
1F
100
AcDbEntity
  8
0
  6
Continuous
 62
     7
370
    15
100
AcDbLine
 10
65.7584700644
 20
255.8210005199
 30
0.0
 11
61.0084700644
 21
255.8210005199
 31
0.0
  0
LINE
  5
16A
330
1F
100
AcDbEntity
  8
0
  6
Continuous
 62
     7
370
    15
100
AcDbLine
 10
61.0084700644
 20
255.8210005199
 30
0.0
 11
61.0084700644
 21
250.8210005199
 31
0.0
  0
LINE
  5
16B
330
1F
100
AcDbEntity
  8
0
  6
Continuous
 62
     7
370
    15
100
AcDbLine
 10
91.0850325644
 20
235.3210005199
 30
0.0
 11
91.9209700644
 21
235.3210005199
 31
0.0
  0
LINE
  5
16C
330
1F
100
AcDbEntity
  8
0
  6
Continuous
 62
     7
370
    15
100
AcDbLine
 10
91.9209700644
 20
235.3210005199
 30
0.0
 11
91.9209700644
 21
239.9967817699
 31
0.0
  0
LINE
  5
16D
330
1F
100
AcDbEntity
  8
0
  6
Continuous
 62
     7
370
    15
100
AcDbLine
 10
91.9209700644
 20
251.3131880199
 30
0.0
 11
91.9209700644
 21
256.0710005199
 31
0.0
  0
LINE
  5
16E
330
1F
100
AcDbEntity
  8
0
  6
Continuous
 62
     7
370
    15
100
AcDbLine
 10
91.9209700644
 20
256.0710005199
 30
0.0
 11
91.1670638144
 21
256.0710005199
 31
0.0
  0
LINE
  5
16F
330
1F
100
AcDbEntity
  8
0
  6
Continuous
 62
     7
370
    15
100
AcDbLine
 10
163.3850325644
 20
255.8210005199
 30
0.0
 11
158.0490950644
 21
255.8210005199
 31
0.0
  0
LINE
  5
170
330
1F
100
AcDbEntity
  8
0
  6
Continuous
 62
     7
370
    15
100
AcDbLine
 10
169.1584700644
 20
250.1178755199
 30
0.0
 11
163.3850325644
 21
255.8210005199
 31
0.0
  0
LINE
  5
171
330
1F
100
AcDbEntity
  8
0
  6
Continuous
 62
     7
370
    15
100
AcDbLine
 10
169.1584700644
 20
235.8210005199
 30
0.0
 11
169.1584700644
 21
250.1178755199
 31
0.0
  0
LINE
  5
172
330
1F
100
AcDbEntity
  8
0
  6
Continuous
 62
     7
370
    15
100
AcDbLine
 10
162.9084700644
 20
235.8210005199
 30
0.0
 11
169.1584700644
 21
235.8210005199
 31
0.0
  0
LINE
  5
173
330
1F
100
AcDbEntity
  8
0
  6
Continuous
 62
     7
370
    15
100
AcDbLine
 10
162.9084700644
 20
251.5710005199
 30
0.0
 11
162.9084700644
 21
235.8210005199
 31
0.0
  0
LINE
  5
174
330
1F
100
AcDbEntity
  8
0
  6
Continuous
 62
     7
370
    15
100
AcDbLine
 10
159.5022200644
 20
251.5710005199
 30
0.0
 11
162.9084700644
 21
251.5710005199
 31
0.0
  0
LINE
  5
175
330
1F
100
AcDbEntity
  8
0
  6
Continuous
 62
     7
370
    15
100
AcDbLine
 10
161.2600325644
 20
243.6413130199
 30
0.0
 11
161.2600325644
 21
247.5397505199
 31
0.0
  0
LINE
  5
176
330
1F
100
AcDbEntity
  8
0
  6
Continuous
 62
     7
370
    15
100
AcDbLine
 10
149.3147200644
 20
235.8210005199
 30
0.0
 11
156.3147200644
 21
235.8210005199
 31
0.0
  0
LINE
  5
177
330
1F
100
AcDbEntity
  8
0
  6
Continuous
 62
     7
370
    15
100
AcDbLine
 10
219.5545638144
 20
255.8210005199
 30
0.0
 11
217.8084700644
 21
255.8210005199
 31
0.0
  0
LINE
  5
178
330
1F
100
AcDbEntity
  8
0
  6
Continuous
 62
     7
370
    15
100
AcDbLine
 10
224.0584700644
 20
251.3561567699
 30
0.0
 11
219.5545638144
 21
255.8210005199
 31
0.0
  0
LINE
  5
179
330
1F
100
AcDbEntity
  8
0
  6
Continuous
 62
     7
370
    15
100
AcDbLine
 10
224.0584700644
 20
235.8210005199
 30
0.0
 11
224.0584700644
 21
251.3561567699
 31
0.0
  0
LINE
  5
17A
330
1F
100
AcDbEntity
  8
0
  6
Continuous
 62
     7
370
    15
100
AcDbLine
 10
217.8084700644
 20
235.8210005199
 30
0.0
 11
224.0584700644
 21
235.8210005199
 31
0.0
  0
LINE
  5
17B
330
1F
100
AcDbEntity
  8
0
  6
Continuous
 62
     7
370
    15
100
AcDbLine
 10
217.8084700644
 20
255.8210005199
 30
0.0
 11
217.8084700644
 21
235.8210005199
 31
0.0
  0
LINE
  5
17C
330
1F
100
AcDbEntity
  8
0
  6
Continuous
 62
     7
370
    15
100
AcDbLine
 10
68.5
 20
309.0
 30
0.0
 11
68.5
 21
299.0
 31
0.0
  0
LINE
  5
17D
330
1F
100
AcDbEntity
  8
0
  6
Continuous
 62
     7
370
    15
100
AcDbLine
 10
41.5
 20
312.0
 30
0.0
 11
65.5
 21
312.0
 31
0.0
  0
LINE
  5
17E
330
1F
100
AcDbEntity
  8
0
  6
Continuous
 62
     7
370
    15
100
AcDbLine
 10
38.5
 20
299.0
 30
0.0
 11
38.5
 21
309.0
 31
0.0
  0
LINE
  5
17F
330
1F
100
AcDbEntity
  8
0
  6
Continuous
 62
     7
370
    15
100
AcDbLine
 10
65.5
 20
296.0
 30
0.0
 11
41.5
 21
296.0
 31
0.0
  0
LINE
  5
180
330
1F
100
AcDbEntity
  8
0
  6
Continuous
 62
     7
370
    15
100
AcDbLine
 10
218.5
 20
299.0
 30
0.0
 11
218.5
 21
309.0
 31
0.0
  0
LINE
  5
181
330
1F
100
AcDbEntity
  8
0
  6
Continuous
 62
     7
370
    15
100
AcDbLine
 10
245.5
 20
296.0
 30
0.0
 11
221.5
 21
296.0
 31
0.0
  0
LINE
  5
182
330
1F
100
AcDbEntity
  8
0
  6
Continuous
 62
     7
370
    15
100
AcDbLine
 10
248.5
 20
309.0
 30
0.0
 11
248.5
 21
299.0
 31
0.0
  0
LINE
  5
183
330
1F
100
AcDbEntity
  8
0
  6
Continuous
 62
     7
370
    15
100
AcDbLine
 10
221.5
 20
312.0
 30
0.0
 11
245.5
 21
312.0
 31
0.0
  0
LINE
  5
184
330
1F
100
AcDbEntity
  8
0
  6
Continuous
 62
     7
370
    15
100
AcDbLine
 10
158.5
 20
309.0
 30
0.0
 11
158.5
 21
299.0
 31
0.0
  0
LINE
  5
185
330
1F
100
AcDbEntity
  8
0
  6
Continuous
 62
     7
370
    15
100
AcDbLine
 10
131.5
 20
312.0
 30
0.0
 11
155.5
 21
312.0
 31
0.0
  0
LINE
  5
186
330
1F
100
AcDbEntity
  8
0
  6
Continuous
 62
     7
370
    15
100
AcDbLine
 10
128.5
 20
299.0
 30
0.0
 11
128.5
 21
309.0
 31
0.0
  0
LINE
  5
187
330
1F
100
AcDbEntity
  8
0
  6
Continuous
 62
     7
370
    15
100
AcDbLine
 10
155.5
 20
296.0
 30
0.0
 11
131.5
 21
296.0
 31
0.0
  0
LINE
  5
188
330
1F
100
AcDbEntity
  8
0
  6
Continuous
 62
     7
370
    15
100
AcDbLine
 10
224.5
 20
20.0
 30
0.0
 11
62.5
 21
20.0
 31
0.0
  0
LINE
  5
189
330
1F
100
AcDbEntity
  8
0
  6
Continuous
 62
     7
370
    15
100
AcDbLine
 10
227.5
 20
97.0
 30
0.0
 11
227.5
 21
23.0
 31
0.0
  0
LINE
  5
18A
330
1F
100
AcDbEntity
  8
0
  6
Continuous
 62
     7
370
    15
100
AcDbLine
 10
62.5
 20
100.0
 30
0.0
 11
224.5
 21
100.0
 31
0.0
  0
LINE
  5
18B
330
1F
100
AcDbEntity
  8
0
  6
Continuous
 62
     7
370
    15
100
AcDbLine
 10
59.5
 20
23.0
 30
0.0
 11
59.5
 21
97.0
 31
0.0
  0
LINE
  5
18C
330
1F
100
AcDbEntity
  8
0
  6
Continuous
 62
     7
370
    15
100
AcDbLine
 10
242.0
 20
65.0
 30
0.0
 11
238.0
 21
65.0
 31
0.0
  0
LINE
  5
18D
330
1F
100
AcDbEntity
  8
0
  6
Continuous
 62
     7
370
    15
100
AcDbLine
 10
245.0
 20
192.0
 30
0.0
 11
245.0
 21
68.0
 31
0.0
  0
LINE
  5
18E
330
1F
100
AcDbEntity
  8
0
  6
Continuous
 62
     7
370
    15
100
AcDbLine
 10
238.0
 20
195.0
 30
0.0
 11
242.0
 21
195.0
 31
0.0
  0
LINE
  5
18F
330
1F
100
AcDbEntity
  8
0
  6
Continuous
 62
     7
370
    15
100
AcDbLine
 10
235.0
 20
68.0
 30
0.0
 11
235.0
 21
192.0
 31
0.0
  0
LINE
  5
190
330
1F
100
AcDbEntity
  8
0
  6
Continuous
 62
     7
370
    15
100
AcDbLine
 10
23.0
 20
20.0
 30
0.0
 11
23.0
 21
3.0
 31
0.0
  0
LINE
  5
191
330
1F
100
AcDbEntity
  8
0
  6
Continuous
 62
     7
370
    15
100
AcDbLine
 10
3.0
 20
30.0
 30
0.0
 11
13.0
 21
30.0
 31
0.0
  0
LINE
  5
192
330
1F
100
AcDbEntity
  8
0
  6
Continuous
 62
     7
370
    15
100
AcDbLine
 10
274.0
 20
30.0
 30
0.0
 11
284.0
 21
30.0
 31
0.0
  0
LINE
  5
193
330
1F
100
AcDbEntity
  8
0
  6
Continuous
 62
     7
370
    15
100
AcDbLine
 10
264.0
 20
3.0
 30
0.0
 11
264.0
 21
20.0
 31
0.0
  0
LINE
  5
194
330
1F
100
AcDbEntity
  8
0
  6
Continuous
 62
     7
370
    15
100
AcDbLine
 10
287.0
 20
320.0
 30
0.0
 11
0.0
 21
320.0
 31
0.0
  0
LINE
  5
195
330
1F
100
AcDbEntity
  8
0
  6
Continuous
 62
     7
370
    15
100
AcDbLine
 10
287.0
 20
33.0
 30
0.0
 11
287.0
 21
320.0
 31
0.0
  0
LINE
  5
196
330
1F
100
AcDbEntity
  8
0
  6
Continuous
 62
     7
370
    15
100
AcDbLine
 10
26.0
 20
0.0
 30
0.0
 11
261.0
 21
0.0
 31
0.0
  0
LINE
  5
197
330
1F
100
AcDbEntity
  8
0
  6
Continuous
 62
     7
370
    15
100
AcDbLine
 10
0.0
 20
320.0
 30
0.0
 11
0.0
 21
33.0
 31
0.0
  0
LINE
  5
198
330
1F
100
AcDbEntity
  8
0
  6
Continuous
 62
     7
370
    15
100
AcDbLine
 10
178.8561263144
 20
249.5241255199
 30
0.0
 11
179.2858138144
 21
249.5241255199
 31
0.0
  0
LINE
  5
199
330
1F
100
AcDbEntity
  8
0
  6
Continuous
 62
     7
370
    15
100
AcDbLine
 10
173.2936263144
 20
250.5514692699
 30
0.0
 11
178.8561263144
 21
249.5241255199
 31
0.0
  0
ARC
  5
19A
330
1F
100
AcDbEntity
  8
0
  6
Continuous
 62
     7
370
    15
100
AcDbCircle
 10
41.5
 20
299.0
 30
0.0
 40
3.0
100
AcDbArc
 50
180.0
 51
270.0
  0
ARC
  5
19B
330
1F
100
AcDbEntity
  8
0
  6
Continuous
 62
     7
370
    15
100
AcDbCircle
 10
41.5
 20
309.0
 30
0.0
 40
3.0
100
AcDbArc
 50
90.0
 51
180.0
  0
ARC
  5
19C
330
1F
100
AcDbEntity
  8
0
  6
Continuous
 62
     7
370
    15
100
AcDbCircle
 10
65.5
 20
309.0
 30
0.0
 40
3.0
100
AcDbArc
 50
0.0
 51
90.0
  0
ARC
  5
19D
330
1F
100
AcDbEntity
  8
0
  6
Continuous
 62
     7
370
    15
100
AcDbCircle
 10
65.5
 20
299.0
 30
0.0
 40
3.0
100
AcDbArc
 50
270.0
 51
0.0
  0
ARC
  5
19E
330
1F
100
AcDbEntity
  8
0
  6
Continuous
 62
     7
370
    15
100
AcDbCircle
 10
155.5
 20
299.0
 30
0.0
 40
3.0
100
AcDbArc
 50
270.0
 51
0.0
  0
ARC
  5
19F
330
1F
100
AcDbEntity
  8
0
  6
Continuous
 62
     7
370
    15
100
AcDbCircle
 10
131.5
 20
299.0
 30
0.0
 40
3.0
100
AcDbArc
 50
180.0
 51
270.0
  0
ARC
  5
1A0
330
1F
100
AcDbEntity
  8
0
  6
Continuous
 62
     7
370
    15
100
AcDbCircle
 10
155.5
 20
309.0
 30
0.0
 40
3.0
100
AcDbArc
 50
0.0
 51
90.0
  0
ARC
  5
1A1
330
1F
100
AcDbEntity
  8
0
  6
Continuous
 62
     7
370
    15
100
AcDbCircle
 10
131.5
 20
309.0
 30
0.0
 40
3.0
100
AcDbArc
 50
90.0
 51
180.0
  0
ARC
  5
1A2
330
1F
100
AcDbEntity
  8
0
  6
Continuous
 62
     7
370
    15
100
AcDbCircle
 10
221.5
 20
309.0
 30
0.0
 40
3.000000000000057
100
AcDbArc
 50
90.0
 51
180.0
  0
ARC
  5
1A3
330
1F
100
AcDbEntity
  8
0
  6
Continuous
 62
     7
370
    15
100
AcDbCircle
 10
245.5
 20
309.0
 30
0.0
 40
3.000000000000057
100
AcDbArc
 50
0.0
 51
90.0
  0
ARC
  5
1A4
330
1F
100
AcDbEntity
  8
0
  6
Continuous
 62
     7
370
    15
100
AcDbCircle
 10
245.5
 20
299.0
 30
0.0
 40
3.000000000000057
100
AcDbArc
 50
270.0
 51
0.0
  0
ARC
  5
1A5
330
1F
100
AcDbEntity
  8
0
  6
Continuous
 62
     7
370
    15
100
AcDbCircle
 10
221.5
 20
299.0
 30
0.0
 40
3.0
100
AcDbArc
 50
180.0
 51
270.0
  0
ARC
  5
1A6
330
1F
100
AcDbEntity
  8
0
  6
Continuous
 62
     7
370
    15
100
AcDbCircle
 10
62.5
 20
23.0
 30
0.0
 40
3.000000000000025
100
AcDbArc
 50
180.0
 51
270.0
  0
ARC
  5
1A7
330
1F
100
AcDbEntity
  8
0
  6
Continuous
 62
     7
370
    15
100
AcDbCircle
 10
62.5
 20
97.0
 30
0.0
 40
3.000000000000007
100
AcDbArc
 50
90.0
 51
180.0
  0
ARC
  5
1A8
330
1F
100
AcDbEntity
  8
0
  6
Continuous
 62
     7
370
    15
100
AcDbCircle
 10
224.5
 20
97.0
 30
0.0
 40
2.999999999999972
100
AcDbArc
 50
0.0
 51
90.0
  0
ARC
  5
1A9
330
1F
100
AcDbEntity
  8
0
  6
Continuous
 62
     7
370
    15
100
AcDbCircle
 10
224.5
 20
23.0
 30
0.0
 40
3.0
100
AcDbArc
 50
270.0
 51
0.0
  0
ARC
  5
1AA
330
1F
100
AcDbEntity
  8
0
  6
Continuous
 62
     7
370
    15
100
AcDbCircle
 10
238.0
 20
68.0
 30
0.0
 40
3.000000000000028
100
AcDbArc
 50
180.0
 51
270.0
  0
ARC
  5
1AB
330
1F
100
AcDbEntity
  8
0
  6
Continuous
 62
     7
370
    15
100
AcDbCircle
 10
242.0
 20
68.0
 30
0.0
 40
3.000000000000057
100
AcDbArc
 50
270.0
 51
0.0
  0
ARC
  5
1AC
330
1F
100
AcDbEntity
  8
0
  6
Continuous
 62
     7
370
    15
100
AcDbCircle
 10
242.0
 20
192.0
 30
0.0
 40
3.0
100
AcDbArc
 50
0.0
 51
90.0
  0
ARC
  5
1AD
330
1F
100
AcDbEntity
  8
0
  6
Continuous
 62
     7
370
    15
100
AcDbCircle
 10
238.0
 20
192.0
 30
0.0
 40
3.0
100
AcDbArc
 50
90.0
 51
180.0
  0
ARC
  5
1AE
330
1F
100
AcDbEntity
  8
0
  6
Continuous
 62
     7
370
    15
100
AcDbCircle
 10
3.0
 20
33.0
 30
0.0
 40
3.000000000000021
100
AcDbArc
 50
180.0
 51
270.0
  0
ARC
  5
1AF
330
1F
100
AcDbEntity
  8
0
  6
Continuous
 62
     7
370
    15
100
AcDbCircle
 10
26.0
 20
3.0
 30
0.0
 40
3.000000000000032
100
AcDbArc
 50
180.0
 51
270.0
  0
ARC
  5
1B0
330
1F
100
AcDbEntity
  8
0
  6
Continuous
 62
     7
370
    15
100
AcDbCircle
 10
284.0
 20
33.0
 30
0.0
 40
3.000000000000057
100
AcDbArc
 50
270.0
 51
0.0
  0
ARC
  5
1B1
330
1F
100
AcDbEntity
  8
0
  6
Continuous
 62
     7
370
    15
100
AcDbCircle
 10
261.0
 20
3.0
 30
0.0
 40
3.0
100
AcDbArc
 50
270.0
 51
0.0
  0
ARC
  5
1B2
330
1F
100
AcDbEntity
  8
0
  6
Continuous
 62
     7
370
    15
100
AcDbCircle
 10
274.0
 20
20.0
 30
0.0
 40
10.00000000000006
100
AcDbArc
 50
90.0
 51
180.0
  0
ARC
  5
1B3
330
1F
100
AcDbEntity
  8
0
  6
Continuous
 62
     7
370
    15
100
AcDbCircle
 10
13.0
 20
20.0
 30
0.0
 40
10.00000000000001
100
AcDbArc
 50
0.0
 51
90.0
  0
ENDSEC
  0
SECTION
  2
OBJECTS
  0
DICTIONARY
  5
C
330
0
100
AcDbDictionary
281
     1
  3
ACAD_GROUP
350
D
  3
ACAD_LAYOUT
350
1A
  3
ACAD_MLINESTYLE
350
17
  3
ACAD_PLOTSETTINGS
350
19
  3
ACAD_PLOTSTYLENAME
350
E
  3
ACAD_SCALELIST
350
47
  0
DICTIONARY
  5
D
102
{ACAD_REACTORS
330
C
102
}
330
C
100
AcDbDictionary
281
     1
  0
DICTIONARY
  5
1A
102
{ACAD_REACTORS
330
C
102
}
330
C
100
AcDbDictionary
281
     1
  3
Layout1
350
1E
  3
Layout2
350
26
  3
Model
350
22
  0
DICTIONARY
  5
17
102
{ACAD_REACTORS
330
C
102
}
330
C
100
AcDbDictionary
281
     1
  3
Standard
350
18
  0
DICTIONARY
  5
19
102
{ACAD_REACTORS
330
C
102
}
330
C
100
AcDbDictionary
281
     1
  0
ACDBDICTIONARYWDFLT
  5
E
102
{ACAD_REACTORS
330
C
102
}
330
C
100
AcDbDictionary
281
     1
  3
Normal
350
F
100
AcDbDictionaryWithDefault
340
F
  0
DICTIONARY
  5
47
102
{ACAD_REACTORS
330
C
102
}
330
C
100
AcDbDictionary
281
     1
  3
A0
350
48
  3
A1
350
49
  3
A2
350
4A
  3
A3
350
4B
  3
A4
350
4C
  3
A5
350
4D
  3
A6
350
4E
  3
A7
350
4F
  3
A8
350
50
  3
A9
350
51
  3
B0
350
52
  3
B1
350
53
  3
B2
350
54
  3
B3
350
55
  3
B4
350
56
  3
B5
350
57
  3
B6
350
58
  3
B7
350
59
  3
B8
350
5A
  3
B9
350
5B
  3
C0
350
5C
  3
C1
350
5D
  3
C2
350
5E
  3
C3
350
5F
  3
C4
350
60
  3
C5
350
61
  3
C6
350
62
  3
C7
350
63
  3
C8
350
64
  3
C9
350
65
  3
D0
350
66
  3
D1
350
67
  3
D2
350
68
  0
LAYOUT
  5
1E
102
{ACAD_REACTORS
330
1A
102
}
330
1A
100
AcDbPlotSettings
  1

  2
none_device
  4

  6

 40
0.0
 41
0.0
 42
0.0
 43
0.0
 44
0.0
 45
0.0
 46
0.0
 47
0.0
 48
0.0
 49
0.0
140
0.0
141
0.0
142
1.0
143
1.0
 70
   688
 72
     1
 73
     0
 74
     5
  7

 75
    16
147
1.0
148
0.0
149
0.0
100
AcDbLayout
  1
Layout1
 70
     1
 71
     1
 10
0.0
 20
0.0
 11
420.0
 21
297.0
 12
0.0
 22
0.0
 32
0.0
 14
1.0000000000E+20
 24
1.0000000000E+20
 34
1.0000000000E+20
 15
-1.0000000000E+20
 25
-1.0000000000E+20
 35
-1.0000000000E+20
146
0.0
 13
0.0
 23
0.0
 33
0.0
 16
1.0
 26
0.0
 36
0.0
 17
0.0
 27
1.0
 37
0.0
 76
     0
330
1B
  0
LAYOUT
  5
26
102
{ACAD_REACTORS
330
1A
102
}
330
1A
100
AcDbPlotSettings
  1

  2
none_device
  4

  6

 40
0.0
 41
0.0
 42
0.0
 43
0.0
 44
0.0
 45
0.0
 46
0.0
 47
0.0
 48
0.0
 49
0.0
140
0.0
141
0.0
142
1.0
143
1.0
 70
   688
 72
     1
 73
     0
 74
     5
  7

 75
    16
147
1.0
148
0.0
149
0.0
100
AcDbLayout
  1
Layout2
 70
     1
 71
     2
 10
0.0
 20
0.0
 11
0.0
 21
0.0
 12
0.0
 22
0.0
 32
0.0
 14
0.0
 24
0.0
 34
0.0
 15
0.0
 25
0.0
 35
0.0
146
0.0
 13
0.0
 23
0.0
 33
0.0
 16
1.0
 26
0.0
 36
0.0
 17
0.0
 27
1.0
 37
0.0
 76
     0
330
23
  0
LAYOUT
  5
22
102
{ACAD_REACTORS
330
1A
102
}
330
1A
100
AcDbPlotSettings
  1

  2
none_device
  4
ANSI_A_(11.00_x_8.50_Inches)
  6

 40
6.35
 41
19.05
 42
6.35000508
 43
19.05000254
 44
279.4
 45
215.9
 46
37.5005177725
 47
-17.97050127
 48
0.0
 49
0.0
140
0.0
141
0.0
142
0.026296875
143
1.0
 70
  1696
 72
     0
 73
     0
 74
     0
  7

 75
     0
147
0.0179189148
148
-1300.4909072572
149
0.0
100
AcDbLayout
  1
Model
 70
     1
 71
     0
 10
0.0
 20
0.0
 11
420.0
 21
297.0
 12
0.0
 22
0.0
 32
0.0
 14
0.0
 24
0.0
 34
0.0
 15
287.0
 25
320.0
 35
0.0
146
0.0
 13
0.0
 23
0.0
 33
0.0
 16
1.0
 26
0.0
 36
0.0
 17
0.0
 27
1.0
 37
0.0
 76
     0
330
1F
331
29
  0
MLINESTYLE
  5
18
102
{ACAD_REACTORS
330
17
102
}
330
17
100
AcDbMlineStyle
  2
Standard
 70
     0
  3

 62
   256
 51
90.0
 52
90.0
 71
     2
 49
0.5
 62
   256
  6
BYLAYER
 49
-0.5
 62
   256
  6
BYLAYER
  0
ACDBPLACEHOLDER
  5
F
102
{ACAD_REACTORS
330
E
102
}
330
E
  0
SCALE
  5
48
102
{ACAD_REACTORS
330
47
102
}
330
47
100
AcDbScale
 70
     0
300
1:1
140
1.0
141
1.0
290
     1
  0
SCALE
  5
49
102
{ACAD_REACTORS
330
47
102
}
330
47
100
AcDbScale
 70
     0
300
1:2
140
1.0
141
2.0
290
     0
  0
SCALE
  5
4A
102
{ACAD_REACTORS
330
47
102
}
330
47
100
AcDbScale
 70
     0
300
1:4
140
1.0
141
4.0
290
     0
  0
SCALE
  5
4B
102
{ACAD_REACTORS
330
47
102
}
330
47
100
AcDbScale
 70
     0
300
1:5
140
1.0
141
5.0
290
     0
  0
SCALE
  5
4C
102
{ACAD_REACTORS
330
47
102
}
330
47
100
AcDbScale
 70
     0
300
1:8
140
1.0
141
8.0
290
     0
  0
SCALE
  5
4D
102
{ACAD_REACTORS
330
47
102
}
330
47
100
AcDbScale
 70
     0
300
1:10
140
1.0
141
10.0
290
     0
  0
SCALE
  5
4E
102
{ACAD_REACTORS
330
47
102
}
330
47
100
AcDbScale
 70
     0
300
1:16
140
1.0
141
16.0
290
     0
  0
SCALE
  5
4F
102
{ACAD_REACTORS
330
47
102
}
330
47
100
AcDbScale
 70
     0
300
1:20
140
1.0
141
20.0
290
     0
  0
SCALE
  5
50
102
{ACAD_REACTORS
330
47
102
}
330
47
100
AcDbScale
 70
     0
300
1:30
140
1.0
141
30.0
290
     0
  0
SCALE
  5
51
102
{ACAD_REACTORS
330
47
102
}
330
47
100
AcDbScale
 70
     0
300
1:40
140
1.0
141
40.0
290
     0
  0
SCALE
  5
52
102
{ACAD_REACTORS
330
47
102
}
330
47
100
AcDbScale
 70
     0
300
1:50
140
1.0
141
50.0
290
     0
  0
SCALE
  5
53
102
{ACAD_REACTORS
330
47
102
}
330
47
100
AcDbScale
 70
     0
300
1:100
140
1.0
141
100.0
290
     0
  0
SCALE
  5
54
102
{ACAD_REACTORS
330
47
102
}
330
47
100
AcDbScale
 70
     0
300
2:1
140
2.0
141
1.0
290
     0
  0
SCALE
  5
55
102
{ACAD_REACTORS
330
47
102
}
330
47
100
AcDbScale
 70
     0
300
4:1
140
4.0
141
1.0
290
     0
  0
SCALE
  5
56
102
{ACAD_REACTORS
330
47
102
}
330
47
100
AcDbScale
 70
     0
300
8:1
140
8.0
141
1.0
290
     0
  0
SCALE
  5
57
102
{ACAD_REACTORS
330
47
102
}
330
47
100
AcDbScale
 70
     0
300
10:1
140
10.0
141
1.0
290
     0
  0
SCALE
  5
58
102
{ACAD_REACTORS
330
47
102
}
330
47
100
AcDbScale
 70
     0
300
100:1
140
100.0
141
1.0
290
     0
  0
SCALE
  5
59
102
{ACAD_REACTORS
330
47
102
}
330
47
100
AcDbScale
 70
     0
300
1/128" = 1'-0"
140
0.0078125
141
12.0
290
     0
  0
SCALE
  5
5A
102
{ACAD_REACTORS
330
47
102
}
330
47
100
AcDbScale
 70
     0
300
1/64" = 1'-0"
140
0.015625
141
12.0
290
     0
  0
SCALE
  5
5B
102
{ACAD_REACTORS
330
47
102
}
330
47
100
AcDbScale
 70
     0
300
1/32" = 1'-0"
140
0.03125
141
12.0
290
     0
  0
SCALE
  5
5C
102
{ACAD_REACTORS
330
47
102
}
330
47
100
AcDbScale
 70
     0
300
1/16" = 1'-0"
140
0.0625
141
12.0
290
     0
  0
SCALE
  5
5D
102
{ACAD_REACTORS
330
47
102
}
330
47
100
AcDbScale
 70
     0
300
3/32" = 1'-0"
140
0.09375
141
12.0
290
     0
  0
SCALE
  5
5E
102
{ACAD_REACTORS
330
47
102
}
330
47
100
AcDbScale
 70
     0
300
1/8" = 1'-0"
140
0.125
141
12.0
290
     0
  0
SCALE
  5
5F
102
{ACAD_REACTORS
330
47
102
}
330
47
100
AcDbScale
 70
     0
300
3/16" = 1'-0"
140
0.1875
141
12.0
290
     0
  0
SCALE
  5
60
102
{ACAD_REACTORS
330
47
102
}
330
47
100
AcDbScale
 70
     0
300
1/4" = 1'-0"
140
0.25
141
12.0
290
     0
  0
SCALE
  5
61
102
{ACAD_REACTORS
330
47
102
}
330
47
100
AcDbScale
 70
     0
300
3/8" = 1'-0"
140
0.375
141
12.0
290
     0
  0
SCALE
  5
62
102
{ACAD_REACTORS
330
47
102
}
330
47
100
AcDbScale
 70
     0
300
1/2" = 1'-0"
140
0.5
141
12.0
290
     0
  0
SCALE
  5
63
102
{ACAD_REACTORS
330
47
102
}
330
47
100
AcDbScale
 70
     0
300
3/4" = 1'-0"
140
0.75
141
12.0
290
     0
  0
SCALE
  5
64
102
{ACAD_REACTORS
330
47
102
}
330
47
100
AcDbScale
 70
     0
300
1" = 1'-0"
140
1.0
141
12.0
290
     0
  0
SCALE
  5
65
102
{ACAD_REACTORS
330
47
102
}
330
47
100
AcDbScale
 70
     0
300
1-1/2" = 1'-0"
140
1.5
141
12.0
290
     0
  0
SCALE
  5
66
102
{ACAD_REACTORS
330
47
102
}
330
47
100
AcDbScale
 70
     0
300
3" = 1'-0"
140
3.0
141
12.0
290
     0
  0
SCALE
  5
67
102
{ACAD_REACTORS
330
47
102
}
330
47
100
AcDbScale
 70
     0
300
6" = 1'-0"
140
6.0
141
12.0
290
     0
  0
SCALE
  5
68
102
{ACAD_REACTORS
330
47
102
}
330
47
100
AcDbScale
 70
     0
300
1'-0" = 1'-0"
140
12.0
141
12.0
290
     0
  0
ENDSEC
  0
EOF
